<svg width="16" height="16" viewBox="0 0 16 16" fill="none" xmlns="http://www.w3.org/2000/svg">
<g id="add">
<mask id="mask0_2139_13218" style="mask-type:alpha" maskUnits="userSpaceOnUse" x="0" y="0" width="16" height="16">
<rect id="Bounding box" width="16" height="16" fill="#D9D9D9"/>
</mask>
<g mask="url(#mask0_2139_13218)">
<path id="add_2" d="M8 13C7.69318 13 7.44445 12.7513 7.44445 12.4444L7.44445 8.55556H3.55556C3.24873 8.55556 3 8.30683 3 8C3 7.69318 3.24873 7.44444 3.55556 7.44444H7.44445L7.44444 3.55556C7.44444 3.24873 7.69318 3 8 3C8.30683 3 8.55556 3.24873 8.55556 3.55556L8.55556 7.44444H12.4444C12.7513 7.44444 13 7.69318 13 8C13 8.30683 12.7513 8.55556 12.4444 8.55556H8.55556L8.55556 12.4444C8.55556 12.7513 8.30683 13 8 13Z" fill="#3874FF"/>
</g>
</g>
</svg>
