<svg xmlns="http://www.w3.org/2000/svg" width="24" height="24" viewBox="0 0 24 24" fill="none">
  <rect x="4" y="8" width="16" height="11" fill="url(#paint0_linear_7488_1381)"/>
  <path d="M6 5H18L20 8H4L6 5Z" fill="url(#paint1_linear_7488_1381)"/>
  <g filter="url(#filter0_d_7488_1381)">
    <rect x="9" y="5" width="7" height="7" fill="white"/>
  </g>
  <path d="M10 6.5L10.5 7L11 6.5L11.5 6" stroke="#69C3DF" stroke-width="0.2" stroke-linecap="round"/>
  <path d="M10 8.5L10.5 9L11 8.5L11.5 8" stroke="#69C3DF" stroke-width="0.2" stroke-linecap="round"/>
  <path d="M10 10.5L10.5 11L11 10.5L11.5 10" stroke="#69C3DF" stroke-width="0.2" stroke-linecap="round"/>
  <line x1="13.15" y1="6.85" x2="14.85" y2="6.85" stroke="#69C3DF" stroke-width="0.3" stroke-linecap="round"/>
  <line x1="13.15" y1="8.85" x2="14.85" y2="8.85" stroke="#69C3DF" stroke-width="0.3" stroke-linecap="round"/>
  <line x1="13.15" y1="10.85" x2="14.85" y2="10.85" stroke="#69C3DF" stroke-width="0.3" stroke-linecap="round"/>
  <defs>
    <filter id="filter0_d_7488_1381" x="5" y="2" width="15" height="15" filterUnits="userSpaceOnUse" color-interpolation-filters="sRGB">
      <feFlood flood-opacity="0" result="BackgroundImageFix"/>
      <feColorMatrix in="SourceAlpha" type="matrix" values="0 0 0 0 0 0 0 0 0 0 0 0 0 0 0 0 0 0 127 0" result="hardAlpha"/>
      <feOffset dy="1"/>
      <feGaussianBlur stdDeviation="2"/>
      <feComposite in2="hardAlpha" operator="out"/>
      <feColorMatrix type="matrix" values="0 0 0 0 0 0 0 0 0 0 0 0 0 0 0 0 0 0 0.25 0"/>
      <feBlend mode="normal" in2="BackgroundImageFix" result="effect1_dropShadow_7488_1381"/>
      <feBlend mode="normal" in="SourceGraphic" in2="effect1_dropShadow_7488_1381" result="shape"/>
    </filter>
    <linearGradient id="paint0_linear_7488_1381" x1="12" y1="8" x2="12" y2="19" gradientUnits="userSpaceOnUse">
      <stop stop-color="#FFD596"/>
      <stop offset="1" stop-color="#DCC089"/>
    </linearGradient>
    <linearGradient id="paint1_linear_7488_1381" x1="12" y1="5" x2="12" y2="8" gradientUnits="userSpaceOnUse">
      <stop stop-color="#F8D193"/>
      <stop offset="1" stop-color="#EAC483"/>
    </linearGradient>
  </defs>
</svg>