<svg xmlns="http://www.w3.org/2000/svg" width="24" height="24" viewBox="0 0 24 24" fill="none">
  <path d="M5.05 4C5.05 3.47533 5.47533 3.05 6 3.05H14.8H18C18.5247 3.05 18.95 3.47533 18.95 4V7.45813V20C18.95 20.5247 18.5247 20.95 18 20.95H6C5.47533 20.95 5.05 20.5247 5.05 20V4Z" fill="url(#paint0_linear_7488_2793)" stroke="url(#paint1_linear_7488_2793)" stroke-width="0.1"/>
  <rect x="6" y="15" width="12" height="0.75" rx="0.375" fill="white"/>
  <rect x="6" y="16.5" width="12" height="0.75" rx="0.375" fill="white"/>
  <rect x="6" y="18" width="12" height="0.75" rx="0.375" fill="white"/>
  <path d="M7.86881 8.05956C7.62758 7.49974 7.85648 6.96719 8.41987 6.7346C8.47348 6.71215 8.54585 6.62499 8.54049 6.5742C8.48045 6.01064 8.98595 5.46312 9.6126 5.53904C9.63188 5.53926 9.65112 5.53729 9.66996 5.53316C10.0559 4.77765 10.4923 4.60174 11.1849 4.93217C11.3821 4.69103 11.6239 4.51191 11.9557 4.50068M7.86881 8.05956C7.91169 8.15901 7.90043 8.21355 7.82163 8.27985M7.86881 8.05956L7.91472 8.03976C7.91472 8.03976 7.91472 8.03977 7.91473 8.03977M7.86881 8.05956L7.91473 8.03977M7.82163 8.27985C7.60721 8.46271 7.51501 8.7076 7.5 8.9851M7.82163 8.27985L7.85408 8.31789C7.85403 8.31793 7.85399 8.31797 7.85394 8.31801M7.82163 8.27985L7.85382 8.31811C7.85386 8.31807 7.8539 8.31804 7.85394 8.31801M7.5 8.9851C7.50661 9.14395 7.54985 9.29914 7.62637 9.43861C7.70288 9.57808 7.81061 9.69808 7.94117 9.78927C7.55414 10.4999 7.92188 11.1003 8.55174 11.3019C8.49117 11.7216 8.66432 12.0467 8.99131 12.3034M7.5 8.9851L7.54996 8.98302C7.54999 8.98382 7.55002 8.98461 7.55006 8.9854M7.5 8.9851L7.54993 8.9878C7.54997 8.987 7.55001 8.9862 7.55006 8.9854M8.99131 12.3034C9.04316 12.3148 9.09509 12.3259 9.14702 12.337C9.28034 12.3654 9.41366 12.3939 9.54559 12.4274C9.61046 12.444 9.70051 12.4686 9.72624 12.5167C10.0902 13.1979 10.4832 13.3444 11.1929 13.0348C11.3768 13.2947 11.6443 13.4374 11.9584 13.5M8.99131 12.3034L9.00204 12.2545C9.00578 12.2554 9.00953 12.2562 9.01327 12.257M8.99131 12.3034L9.02218 12.264C9.0192 12.2617 9.01623 12.2593 9.01327 12.257M11.9584 13.5H12.0436M11.9584 13.5V13.45H11.9633M11.9584 13.5L11.9681 13.451C11.9665 13.4506 11.9649 13.4503 11.9633 13.45M12.0436 13.5C12.3208 13.4284 12.5915 13.3465 12.7769 13.1017C12.7936 13.0797 12.874 13.0899 12.9169 13.1065C13.514 13.3385 14.0881 13.1156 14.2886 12.5424C14.3028 12.5169 14.3221 12.4947 14.3452 12.4769C14.3684 12.4592 14.3949 12.4463 14.4232 12.4392C14.5633 12.402 14.705 12.3716 14.8467 12.3412C14.9007 12.3296 14.9547 12.318 15.0085 12.306M12.0436 13.5L12.0311 13.4516C12.0332 13.4511 12.0352 13.4505 12.0373 13.45M12.0436 13.5V13.45H12.0373M15.0085 12.306C15.343 12.0462 15.5082 11.7115 15.447 11.2933C15.4606 11.2809 15.4753 11.2698 15.491 11.2602C16.1755 10.9725 16.3594 10.5592 16.1182 9.86733C16.1134 9.83874 16.1152 9.80942 16.1234 9.78162C16.1317 9.75382 16.1462 9.72827 16.1659 9.70693C16.2793 9.60985 16.3683 9.48767 16.4259 9.35016C16.4835 9.21264 16.5081 9.0636 16.4977 8.91493C16.4873 8.76626 16.4421 8.62207 16.3659 8.49389C16.2897 8.3657 16.1845 8.25707 16.0587 8.17665C16.4318 7.46552 16.0903 6.86881 15.4545 6.66349C15.4512 6.63814 15.4498 6.61259 15.4503 6.58703C15.5135 5.94754 14.9549 5.46953 14.4157 5.54065C14.3007 5.55583 14.2752 5.48948 14.2425 5.40437L14.2404 5.39896M15.0085 12.306L14.9779 12.2666C14.9808 12.2643 14.9837 12.262 14.9867 12.2597M15.0085 12.306L14.9977 12.2572C14.994 12.258 14.9903 12.2589 14.9867 12.2597M14.2404 5.39896C14.0324 4.86213 13.4727 4.62473 12.9437 4.85625M14.2404 5.39896L14.1937 5.41693C13.9959 4.90639 13.4664 4.68209 12.9637 4.90206M14.2404 5.39896L14.1938 5.41702L11.9574 4.55065M12.9437 4.85625C12.8289 4.90651 12.7668 4.89154 12.6896 4.80278M12.9437 4.85625L12.9637 4.90206M12.9437 4.85625L12.9637 4.90205C12.9637 4.90205 12.9637 4.90205 12.9637 4.90206M12.6896 4.80278C12.4971 4.58249 12.2457 4.49106 11.9557 4.50068M12.6896 4.80278L12.6518 4.83559M12.6896 4.80278L12.6519 4.83568C12.6519 4.83565 12.6519 4.83562 12.6518 4.83559M11.9557 4.50068L11.9574 4.55065M11.9557 4.50068L11.9574 4.55066C11.6455 4.56122 11.4159 4.72871 11.2236 4.96383L11.1987 4.99419L11.1633 4.9773C10.8229 4.8149 10.5563 4.78215 10.3309 4.87189C10.1039 4.96227 9.90555 5.1819 9.71448 5.55591L9.70373 5.57695L9.68065 5.58201C9.65812 5.58694 9.6351 5.5893 9.61204 5.58904L9.60655 5.58898L9.60659 5.58868C9.01279 5.51674 8.53347 6.03637 8.5902 6.5689L8.59021 6.56895C8.59284 6.59384 8.5858 6.61807 8.57723 6.63761C8.56832 6.65794 8.55569 6.67785 8.54173 6.69577C8.51478 6.73034 8.47691 6.76492 8.43919 6.78072L8.43895 6.78082C8.16764 6.89283 7.98038 7.07541 7.88871 7.29373C7.7971 7.51189 7.79881 7.77077 7.91473 8.03977M11.9574 4.55065L14.1969 5.42529C14.2117 5.46393 14.2293 5.51002 14.2603 5.54283C14.2989 5.58368 14.3518 5.59951 14.4222 5.59022L14.4157 5.54067L14.4222 5.59022C14.9302 5.52324 15.4605 5.9753 15.4005 6.58211L15.4003 6.58209L15.4003 6.5861C15.3997 6.61415 15.4013 6.64219 15.405 6.67L15.4091 6.70135L15.4392 6.71107C15.7464 6.81027 15.978 7.00246 16.0893 7.25084C16.2002 7.49829 16.1951 7.80905 16.0144 8.15343L15.9931 8.19407L16.0318 8.21878C16.151 8.295 16.2507 8.39797 16.3229 8.51944C16.3952 8.64092 16.4379 8.77755 16.4478 8.91842C16.4577 9.0593 16.4344 9.20053 16.3798 9.33084C16.3252 9.46115 16.2408 9.57694 16.1334 9.66895L16.1331 9.66869L16.1291 9.67304C16.1043 9.69999 16.0859 9.73225 16.0755 9.76737C16.065 9.80249 16.0628 9.83953 16.0689 9.87565L16.0682 9.87577L16.071 9.8838C16.1896 10.2241 16.2 10.4858 16.1061 10.6949C16.0122 10.9041 15.8085 11.0725 15.4716 11.2141L15.4714 11.2136L15.465 11.2175C15.4465 11.2288 15.4291 11.2419 15.4131 11.2566L15.3938 11.2745L15.3976 11.3006C15.4551 11.6944 15.3034 12.0101 14.9867 12.2597M11.9574 4.55065C12.2346 4.54146 12.4707 4.62828 12.6518 4.83559M7.91473 8.03977C7.9376 8.09282 7.95029 8.14302 7.93976 8.19253C7.9291 8.24269 7.89688 8.28186 7.85394 8.31801M7.85394 8.31801C7.65317 8.4893 7.56492 8.71894 7.55006 8.9854M7.55006 8.9854C7.55668 9.13572 7.59778 9.28254 7.6702 9.41456C7.74302 9.54728 7.84554 9.66148 7.9698 9.74828L8.00648 9.7739L7.98508 9.81319C7.798 10.1567 7.79579 10.4677 7.91049 10.7155C8.0258 10.9645 8.26265 11.1569 8.56698 11.2543L8.60727 11.2672L8.60123 11.309C8.5443 11.7035 8.70295 12.01 9.01327 12.257M9.01327 12.257C9.06081 12.2674 9.10862 12.2776 9.15657 12.2879C9.29022 12.3164 9.42497 12.3452 9.55789 12.379L9.55797 12.379C9.5902 12.3872 9.63229 12.3983 9.66998 12.4141C9.70534 12.429 9.74876 12.4528 9.77034 12.4931L9.77034 12.4931C9.95033 12.83 10.1319 13.0234 10.3467 13.1002C10.5613 13.1769 10.8223 13.1419 11.1729 12.989L11.2102 12.9727L11.2337 13.0059C11.4076 13.2516 11.6606 13.3888 11.9633 13.45M11.9633 13.45H12.0373M12.0373 13.45C12.3127 13.3786 12.5645 13.2994 12.7371 13.0715L12.7371 13.0715C12.7531 13.0503 12.7775 13.044 12.791 13.0416C12.8071 13.0388 12.8244 13.0387 12.8404 13.0397C12.8724 13.0419 12.9082 13.0495 12.9349 13.0598L12.935 13.0599C13.2235 13.172 13.503 13.1729 13.7327 13.08C13.9619 12.9873 14.1457 12.7996 14.2414 12.5259L14.2443 12.5176L14.245 12.518C14.2625 12.4866 14.2863 12.4591 14.3148 12.4373C14.3433 12.4154 14.3759 12.3996 14.4106 12.3908C14.5519 12.3533 14.6953 12.3225 14.8373 12.2921C14.8873 12.2813 14.9372 12.2706 14.9867 12.2597M12.6518 4.83559C12.6932 4.88319 12.7369 4.9186 12.792 4.93052C12.8467 4.94236 12.9027 4.92878 12.9637 4.90206" fill="white" stroke="url(#paint2_linear_7488_2793)" stroke-width="0.1"/>
  <path d="M9.05 9C9.05 7.37076 10.3708 6.05 12 6.05C13.6292 6.05 14.95 7.37076 14.95 9C14.95 10.6292 13.6292 11.95 12 11.95C10.3708 11.95 9.05 10.6292 9.05 9Z" fill="url(#paint3_linear_7488_2793)" stroke="url(#paint4_linear_7488_2793)" stroke-width="0.1"/>
  <path fill-rule="evenodd" clip-rule="evenodd" d="M9.15 9C9.15 10.574 10.426 11.85 12 11.85C13.574 11.85 14.85 10.574 14.85 9C14.85 7.42599 13.574 6.15 12 6.15C10.426 6.15 9.15 7.42599 9.15 9ZM12 6C10.3431 6 9 7.34315 9 9C9 10.6569 10.3431 12 12 12C13.6569 12 15 10.6569 15 9C15 7.34315 13.6569 6 12 6Z" fill="url(#paint5_linear_7488_2793)"/>
  <path fill-rule="evenodd" clip-rule="evenodd" d="M13.6898 7.21611C13.8466 7.35142 13.864 7.58822 13.7287 7.74501L11.1633 10.7175L10.2661 10.0017C10.1042 9.87252 10.0777 9.63656 10.2069 9.47468C10.3361 9.31279 10.572 9.28627 10.7339 9.41544L11.067 9.68119L13.1609 7.25499C13.2962 7.0982 13.533 7.08079 13.6898 7.21611Z" fill="white"/>
  <defs>
    <linearGradient id="paint0_linear_7488_2793" x1="12" y1="4.5" x2="12.1103" y2="22.4993" gradientUnits="userSpaceOnUse">
      <stop stop-color="#F9A3A3"/>
      <stop offset="0.947917" stop-color="#D67676"/>
    </linearGradient>
    <linearGradient id="paint1_linear_7488_2793" x1="5.7" y1="3" x2="19.3078" y2="20.8054" gradientUnits="userSpaceOnUse">
      <stop stop-color="#EA8585"/>
      <stop offset="1" stop-color="#FBB5B5"/>
    </linearGradient>
    <linearGradient id="paint2_linear_7488_2793" x1="12" y1="4.5" x2="12" y2="13.5" gradientUnits="userSpaceOnUse">
      <stop stop-color="white"/>
      <stop offset="0.519781" stop-color="#B0B0B0" stop-opacity="0"/>
      <stop offset="1" stop-color="white"/>
    </linearGradient>
    <linearGradient id="paint3_linear_7488_2793" x1="12" y1="6.5" x2="12.0286" y2="12.4999" gradientUnits="userSpaceOnUse">
      <stop stop-color="#F9A3A3"/>
      <stop offset="0.947917" stop-color="#D67676"/>
    </linearGradient>
    <linearGradient id="paint4_linear_7488_2793" x1="9.3" y1="6" x2="13.4295" y2="12.9471" gradientUnits="userSpaceOnUse">
      <stop stop-color="#EA8585"/>
      <stop offset="1" stop-color="#FBB5B5"/>
    </linearGradient>
    <linearGradient id="paint5_linear_7488_2793" x1="14.25" y1="11.25" x2="9" y2="7.5" gradientUnits="userSpaceOnUse">
      <stop offset="0.0419145" stop-color="#FBB2B2"/>
      <stop offset="0.71875" stop-color="#E68F8F"/>
    </linearGradient>
  </defs>
</svg>