<svg xmlns="http://www.w3.org/2000/svg" width="24" height="24" viewBox="0 0 24 24" fill="none">
  <path d="M5.05 4C5.05 3.47533 5.47533 3.05 6 3.05H14.8H18C18.5247 3.05 18.95 3.47533 18.95 4V7.45813V16.481L14.9775 20.95H6C5.47533 20.95 5.05 20.5247 5.05 20V4Z" fill="url(#paint0_linear_7488_2421)" stroke="url(#paint1_linear_7488_2421)" stroke-width="0.1"/>
  <rect x="6.05" y="4.55" width="11.9" height="5.9" rx="0.95" fill="white" fill-opacity="0.28" stroke="url(#paint2_linear_7488_2421)" stroke-width="0.1"/>
  <path d="M9.43718 8.36109C9.46094 8.36109 9.48248 8.36997 9.50178 8.38771L9.67109 8.55768C9.5404 8.69693 9.38148 8.80546 9.19435 8.88328C9.0087 8.96109 8.78444 9 8.52157 9C8.29136 9 8.0827 8.96382 7.89556 8.89147C7.70843 8.81775 7.54877 8.71536 7.41659 8.5843C7.28441 8.45188 7.18193 8.29352 7.10916 8.10922C7.03639 7.92491 7 7.72218 7 7.50102C7 7.27986 7.03861 7.07713 7.11584 6.89283C7.19456 6.70853 7.30446 6.55017 7.44555 6.41775C7.58665 6.28532 7.75521 6.18294 7.95126 6.11058C8.14879 6.03686 8.36636 6 8.60399 6C8.83865 6 9.04064 6.03345 9.20995 6.10034C9.38074 6.16724 9.53223 6.25802 9.66441 6.3727L9.52406 6.55495C9.51367 6.5686 9.50178 6.5802 9.48842 6.58976C9.47505 6.59795 9.45574 6.60205 9.4305 6.60205C9.41119 6.60205 9.3904 6.5959 9.36812 6.58362C9.34733 6.56997 9.32208 6.55358 9.29237 6.53447C9.26267 6.51536 9.22777 6.49488 9.18767 6.47304C9.14757 6.45119 9.10004 6.43072 9.04509 6.4116C8.99014 6.39249 8.92628 6.37679 8.8535 6.36451C8.78073 6.35085 8.69682 6.34403 8.60177 6.34403C8.43097 6.34403 8.27428 6.37133 8.13171 6.42594C7.99061 6.47918 7.86883 6.55563 7.76635 6.65529C7.66388 6.75495 7.58368 6.87645 7.52575 7.0198C7.46932 7.16314 7.4411 7.32355 7.4411 7.50102C7.4411 7.68396 7.46932 7.8471 7.52575 7.99044C7.58368 8.13379 7.66165 8.25529 7.75967 8.35495C7.85918 8.45324 7.97651 8.52833 8.11166 8.5802C8.24681 8.63208 8.39236 8.65802 8.5483 8.65802C8.64335 8.65802 8.72875 8.65324 8.80449 8.64369C8.88024 8.63276 8.95004 8.61638 9.0139 8.59454C9.07925 8.5727 9.1394 8.54539 9.19435 8.51263C9.25079 8.4785 9.30723 8.43823 9.36366 8.39181C9.38891 8.37133 9.41342 8.36109 9.43718 8.36109Z" fill="white"/>
  <path d="M12.2044 6.03276V6.35631H10.6717V7.33106H11.9125V7.64232H10.6717V8.64369H12.2044V8.96724H10.2373V6.03276H12.2044Z" fill="white"/>
  <path d="M14.4614 6.49147C14.448 6.51195 14.4339 6.52765 14.419 6.53857C14.4042 6.54812 14.3849 6.5529 14.3611 6.5529C14.3359 6.5529 14.3062 6.5413 14.272 6.51809C14.2393 6.49488 14.197 6.46962 14.145 6.44232C14.0945 6.41365 14.0329 6.38771 13.9601 6.36451C13.8888 6.3413 13.8019 6.32969 13.6995 6.32969C13.6029 6.32969 13.5175 6.34198 13.4433 6.36655C13.369 6.38976 13.3066 6.42184 13.2561 6.4628C13.2071 6.50375 13.17 6.55222 13.1447 6.60819C13.1195 6.6628 13.1069 6.72218 13.1069 6.78635C13.1069 6.86826 13.1284 6.93652 13.1715 6.99113C13.216 7.04437 13.274 7.0901 13.3452 7.12833C13.418 7.16655 13.4997 7.2 13.5903 7.22867C13.6824 7.25597 13.7759 7.28464 13.871 7.31468C13.9675 7.34471 14.0611 7.37884 14.1517 7.41706C14.2438 7.45393 14.3255 7.50102 14.3967 7.55836C14.4695 7.6157 14.5274 7.68601 14.5705 7.76928C14.6151 7.85256 14.6373 7.95495 14.6373 8.07645C14.6373 8.20478 14.6136 8.3256 14.5661 8.43891C14.5185 8.55085 14.4487 8.64846 14.3566 8.73174C14.2661 8.81502 14.1539 8.88055 14.0203 8.92833C13.8881 8.97611 13.7373 9 13.568 9C13.3616 9 13.173 8.96587 13.0022 8.89761C12.8329 8.82799 12.688 8.73447 12.5677 8.61706L12.6925 8.42867C12.7044 8.41365 12.7185 8.40137 12.7348 8.39181C12.7527 8.38089 12.772 8.37543 12.7928 8.37543C12.8239 8.37543 12.8596 8.39113 12.8997 8.42253C12.9398 8.45256 12.9895 8.48601 13.0489 8.52287C13.1098 8.55973 13.1826 8.59386 13.2673 8.62526C13.3534 8.65529 13.4581 8.67031 13.5814 8.67031C13.6839 8.67031 13.7752 8.65734 13.8554 8.6314C13.9356 8.60546 14.0032 8.56928 14.0581 8.52287C14.1146 8.47509 14.1576 8.41843 14.1873 8.3529C14.217 8.28737 14.2319 8.21433 14.2319 8.13379C14.2319 8.04505 14.2096 7.9727 14.1651 7.91672C14.122 7.85939 14.0648 7.8116 13.9935 7.77338C13.9222 7.73515 13.8405 7.70307 13.7485 7.67713C13.6579 7.64983 13.5643 7.62253 13.4678 7.59522C13.3727 7.56655 13.2792 7.53379 13.1871 7.49693C13.0965 7.46007 13.0155 7.41229 12.9442 7.35358C12.873 7.29488 12.815 7.22184 12.7705 7.13447C12.7274 7.04573 12.7059 6.93652 12.7059 6.80683C12.7059 6.70307 12.7274 6.60273 12.7705 6.5058C12.815 6.40887 12.8789 6.32287 12.9621 6.24778C13.0452 6.1727 13.1477 6.11263 13.2695 6.06758C13.3928 6.02253 13.5339 6 13.6928 6C13.871 6 14.0336 6.02594 14.1807 6.07782C14.3277 6.12969 14.4562 6.20478 14.5661 6.30307L14.4614 6.49147Z" fill="white"/>
  <path d="M16.824 6.49147C16.8106 6.51195 16.7965 6.52765 16.7817 6.53857C16.7668 6.54812 16.7475 6.5529 16.7238 6.5529C16.6985 6.5529 16.6688 6.5413 16.6346 6.51809C16.602 6.49488 16.5596 6.46962 16.5077 6.44232C16.4572 6.41365 16.3955 6.38771 16.3228 6.36451C16.2515 6.3413 16.1646 6.32969 16.0621 6.32969C15.9656 6.32969 15.8802 6.34198 15.8059 6.36655C15.7317 6.38976 15.6693 6.42184 15.6188 6.4628C15.5698 6.50375 15.5326 6.55222 15.5074 6.60819C15.4821 6.6628 15.4695 6.72218 15.4695 6.78635C15.4695 6.86826 15.4911 6.93652 15.5341 6.99113C15.5787 7.04437 15.6366 7.0901 15.7079 7.12833C15.7807 7.16655 15.8624 7.2 15.9529 7.22867C16.045 7.25597 16.1386 7.28464 16.2336 7.31468C16.3302 7.34471 16.4237 7.37884 16.5143 7.41706C16.6064 7.45393 16.6881 7.50102 16.7594 7.55836C16.8322 7.6157 16.8901 7.68601 16.9332 7.76928C16.9777 7.85256 17 7.95495 17 8.07645C17 8.20478 16.9762 8.3256 16.9287 8.43891C16.8812 8.55085 16.8114 8.64846 16.7193 8.73174C16.6287 8.81502 16.5166 8.88055 16.3829 8.92833C16.2507 8.97611 16.1 9 15.9307 9C15.7242 9 15.5356 8.96587 15.3648 8.89761C15.1955 8.82799 15.0507 8.73447 14.9304 8.61706L15.0552 8.42867C15.067 8.41365 15.0811 8.40137 15.0975 8.39181C15.1153 8.38089 15.1346 8.37543 15.1554 8.37543C15.1866 8.37543 15.2222 8.39113 15.2623 8.42253C15.3024 8.45256 15.3522 8.48601 15.4116 8.52287C15.4725 8.55973 15.5453 8.59386 15.6299 8.62526C15.7161 8.65529 15.8208 8.67031 15.944 8.67031C16.0465 8.67031 16.1379 8.65734 16.2181 8.6314C16.2983 8.60546 16.3658 8.56928 16.4208 8.52287C16.4772 8.47509 16.5203 8.41843 16.55 8.3529C16.5797 8.28737 16.5945 8.21433 16.5945 8.13379C16.5945 8.04505 16.5723 7.9727 16.5277 7.91672C16.4846 7.85939 16.4275 7.8116 16.3562 7.77338C16.2849 7.73515 16.2032 7.70307 16.1111 7.67713C16.0205 7.64983 15.927 7.62253 15.8304 7.59522C15.7354 7.56655 15.6418 7.53379 15.5497 7.49693C15.4591 7.46007 15.3782 7.41229 15.3069 7.35358C15.2356 7.29488 15.1777 7.22184 15.1331 7.13447C15.0901 7.04573 15.0685 6.93652 15.0685 6.80683C15.0685 6.70307 15.0901 6.60273 15.1331 6.5058C15.1777 6.40887 15.2415 6.32287 15.3247 6.24778C15.4079 6.1727 15.5104 6.11263 15.6321 6.06758C15.7554 6.02253 15.8965 6 16.0554 6C16.2336 6 16.3963 6.02594 16.5433 6.07782C16.6903 6.12969 16.8188 6.20478 16.9287 6.30307L16.824 6.49147Z" fill="white"/>
  <g filter="url(#filter0_d_7488_2421)">
    <rect x="6" y="12" width="12" height="0.75" rx="0.375" fill="white"/>
  </g>
  <g filter="url(#filter1_d_7488_2421)">
    <rect x="6" y="13.5" width="12" height="0.75" rx="0.375" fill="white"/>
  </g>
  <g filter="url(#filter2_d_7488_2421)">
    <rect x="6" y="15" width="12" height="0.75" rx="0.375" fill="white"/>
  </g>
  <g filter="url(#filter3_d_7488_2421)">
    <rect x="6" y="16.5" width="6" height="0.75" rx="0.375" fill="white"/>
  </g>
  <path d="M15 21L19 16.5H15V21Z" fill="url(#paint3_linear_7488_2421)"/>
  <defs>
    <filter id="filter0_d_7488_2421" x="5" y="11" width="14" height="2.75" filterUnits="userSpaceOnUse" color-interpolation-filters="sRGB">
      <feFlood flood-opacity="0" result="BackgroundImageFix"/>
      <feColorMatrix in="SourceAlpha" type="matrix" values="0 0 0 0 0 0 0 0 0 0 0 0 0 0 0 0 0 0 127 0" result="hardAlpha"/>
      <feOffset/>
      <feGaussianBlur stdDeviation="0.5"/>
      <feComposite in2="hardAlpha" operator="out"/>
      <feColorMatrix type="matrix" values="0 0 0 0 0.386285 0 0 0 0 0.741667 0 0 0 0 0.566889 0 0 0 1 0"/>
      <feBlend mode="normal" in2="BackgroundImageFix" result="effect1_dropShadow_7488_2421"/>
      <feBlend mode="normal" in="SourceGraphic" in2="effect1_dropShadow_7488_2421" result="shape"/>
    </filter>
    <filter id="filter1_d_7488_2421" x="5" y="12.5" width="14" height="2.75" filterUnits="userSpaceOnUse" color-interpolation-filters="sRGB">
      <feFlood flood-opacity="0" result="BackgroundImageFix"/>
      <feColorMatrix in="SourceAlpha" type="matrix" values="0 0 0 0 0 0 0 0 0 0 0 0 0 0 0 0 0 0 127 0" result="hardAlpha"/>
      <feOffset/>
      <feGaussianBlur stdDeviation="0.5"/>
      <feComposite in2="hardAlpha" operator="out"/>
      <feColorMatrix type="matrix" values="0 0 0 0 0.386285 0 0 0 0 0.741667 0 0 0 0 0.566889 0 0 0 1 0"/>
      <feBlend mode="normal" in2="BackgroundImageFix" result="effect1_dropShadow_7488_2421"/>
      <feBlend mode="normal" in="SourceGraphic" in2="effect1_dropShadow_7488_2421" result="shape"/>
    </filter>
    <filter id="filter2_d_7488_2421" x="5" y="14" width="14" height="2.75" filterUnits="userSpaceOnUse" color-interpolation-filters="sRGB">
      <feFlood flood-opacity="0" result="BackgroundImageFix"/>
      <feColorMatrix in="SourceAlpha" type="matrix" values="0 0 0 0 0 0 0 0 0 0 0 0 0 0 0 0 0 0 127 0" result="hardAlpha"/>
      <feOffset/>
      <feGaussianBlur stdDeviation="0.5"/>
      <feComposite in2="hardAlpha" operator="out"/>
      <feColorMatrix type="matrix" values="0 0 0 0 0.386285 0 0 0 0 0.741667 0 0 0 0 0.566889 0 0 0 1 0"/>
      <feBlend mode="normal" in2="BackgroundImageFix" result="effect1_dropShadow_7488_2421"/>
      <feBlend mode="normal" in="SourceGraphic" in2="effect1_dropShadow_7488_2421" result="shape"/>
    </filter>
    <filter id="filter3_d_7488_2421" x="5" y="15.5" width="8" height="2.75" filterUnits="userSpaceOnUse" color-interpolation-filters="sRGB">
      <feFlood flood-opacity="0" result="BackgroundImageFix"/>
      <feColorMatrix in="SourceAlpha" type="matrix" values="0 0 0 0 0 0 0 0 0 0 0 0 0 0 0 0 0 0 127 0" result="hardAlpha"/>
      <feOffset/>
      <feGaussianBlur stdDeviation="0.5"/>
      <feComposite in2="hardAlpha" operator="out"/>
      <feColorMatrix type="matrix" values="0 0 0 0 0.386285 0 0 0 0 0.741667 0 0 0 0 0.566889 0 0 0 1 0"/>
      <feBlend mode="normal" in2="BackgroundImageFix" result="effect1_dropShadow_7488_2421"/>
      <feBlend mode="normal" in="SourceGraphic" in2="effect1_dropShadow_7488_2421" result="shape"/>
    </filter>
    <linearGradient id="paint0_linear_7488_2421" x1="12" y1="3" x2="12" y2="20.8326" gradientUnits="userSpaceOnUse">
      <stop stop-color="#2BAF89"/>
      <stop offset="1" stop-color="#2DCFAF"/>
    </linearGradient>
    <linearGradient id="paint1_linear_7488_2421" x1="5.7" y1="3" x2="19.3078" y2="20.8054" gradientUnits="userSpaceOnUse">
      <stop stop-color="#6FFAC8"/>
      <stop offset="1" stop-color="#207A46"/>
    </linearGradient>
    <linearGradient id="paint2_linear_7488_2421" x1="12" y1="4.5" x2="12" y2="10.5" gradientUnits="userSpaceOnUse">
      <stop stop-color="#61DFAE"/>
      <stop offset="1" stop-color="#9EEBCD"/>
    </linearGradient>
    <linearGradient id="paint3_linear_7488_2421" x1="17" y1="20" x2="14.75" y2="17.75" gradientUnits="userSpaceOnUse">
      <stop stop-color="#3BB674"/>
      <stop offset="1" stop-color="#B9FFE4"/>
    </linearGradient>
  </defs>
</svg>