<svg width="16" height="16" viewBox="0 0 16 16" fill="none" xmlns="http://www.w3.org/2000/svg">
<rect width="16" height="16" rx="2" fill="#3874FF"/>
<mask id="mask0_1_485" style="mask-type:alpha" maskUnits="userSpaceOnUse" x="1" y="1" width="14" height="14">
<rect x="1" y="1" width="14" height="14" fill="#D9D9D9"/>
</mask>
<g mask="url(#mask0_1_485)">
<path d="M6.14421 12.6667C6.04346 12.6667 5.94899 12.6492 5.86083 12.6141C5.77267 12.5796 5.6908 12.5205 5.61523 12.437L2.36578 8.84568C2.22724 8.69256 2.16099 8.49406 2.16704 8.25018C2.17358 8.00686 2.24613 7.80864 2.38467 7.65552C2.52322 7.5024 2.69954 7.42584 2.91365 7.42584C3.12777 7.42584 3.30409 7.5024 3.44263 7.65552L6.14421 10.6414L12.5487 3.56305C12.6872 3.40993 12.8668 3.33337 13.0875 3.33337C13.3076 3.33337 13.487 3.40993 13.6255 3.56305C13.7641 3.71617 13.8333 3.91439 13.8333 4.15771C13.8333 4.40159 13.7641 4.60009 13.6255 4.75321L6.67319 12.437C6.59763 12.5205 6.51576 12.5796 6.4276 12.6141C6.33943 12.6492 6.24497 12.6667 6.14421 12.6667Z" fill="white"/>
</g>
</svg>