<svg width="16" height="16" viewBox="0 0 16 16" fill="none" xmlns="http://www.w3.org/2000/svg">
<rect width="16" height="16" rx="2" fill="#9497A1"/>
<mask id="mask0_2183_276054" style="mask-type:alpha" maskUnits="userSpaceOnUse" x="2" y="2" width="12" height="12">
<rect x="2" y="2" width="12" height="12" fill="#D9D9D9"/>
</mask>
<g mask="url(#mask0_2183_276054)">
<path d="M4.57143 8.65718C4.39048 8.65718 4.23582 8.5928 4.10743 8.46404C3.97867 8.33566 3.91429 8.18099 3.91429 8.00004C3.91429 7.81909 3.97867 7.66442 4.10743 7.53604C4.23582 7.40728 4.39048 7.3429 4.57143 7.3429H11.4286C11.6095 7.3429 11.7642 7.40728 11.8926 7.53604C12.0213 7.66442 12.0857 7.81909 12.0857 8.00004C12.0857 8.18099 12.0213 8.33566 11.8926 8.46404C11.7642 8.5928 11.6095 8.65718 11.4286 8.65718H8.00001H4.57143Z" fill="white"/>
</g>
</svg>