<svg xmlns="http://www.w3.org/2000/svg" width="24" height="24" viewBox="0 0 24 24" fill="none">
  <path d="M21.95 17C21.95 17.5247 21.5247 17.95 21 17.95L3.00004 17.95C2.47536 17.95 2.05002 17.5246 2.05004 17L2.05035 9.95294L2.05009 7.00009C2.05004 6.47538 2.47538 6.05 3.00009 6.05L21 6.05C21.5247 6.05 21.95 6.47533 21.95 7L21.95 17Z" fill="url(#paint0_linear_7488_1981)" stroke="url(#paint1_linear_7488_1981)" stroke-width="0.1"/>
  <path d="M9.90532 13.6213L9.15532 10.6213C9.07642 10.3057 9.3151 10 9.64039 10H14.3596C14.6849 10 14.9236 10.3057 14.8447 10.6213L14.0947 13.6213C14.039 13.8439 13.839 14 13.6096 14H10.3904C10.161 14 9.96096 13.8439 9.90532 13.6213Z" stroke="white" stroke-width="0.5"/>
  <g filter="url(#filter0_d_7488_1981)">
    <rect x="17.163" y="12.5002" width="2.24976" height="0.558015" transform="rotate(90 17.163 12.5002)" fill="white"/>
    <path d="M16.884 16L15.9175 14.5002L17.8505 14.5002L16.884 16Z" fill="white"/>
  </g>
  <g filter="url(#filter1_d_7488_1981)">
    <rect x="6.83705" y="11.4998" width="2.24976" height="0.558015" transform="rotate(-90 6.83705 11.4998)" fill="white"/>
    <path d="M7.11603 8L8.08254 9.49984L6.14952 9.49984L7.11603 8Z" fill="white"/>
  </g>
  <circle cx="10.5" cy="14.5" r="0.5" fill="white"/>
  <circle cx="13.5" cy="14.5" r="0.5" fill="white"/>
  <path d="M11 8.49996C9.8 8.49996 9.5 9.49996 9.5 9.99996L14.5 9.99996V9.49997C14.5 9.09996 14 7.99997 13 8.49997C12 8.99997 12.5 8.49996 11 8.49996Z" fill="white"/>
  <defs>
    <filter id="filter0_d_7488_1981" x="15.1175" y="12.5002" width="3.53292" height="5.09967" filterUnits="userSpaceOnUse" color-interpolation-filters="sRGB">
      <feFlood flood-opacity="0" result="BackgroundImageFix"/>
      <feColorMatrix in="SourceAlpha" type="matrix" values="0 0 0 0 0 0 0 0 0 0 0 0 0 0 0 0 0 0 127 0" result="hardAlpha"/>
      <feOffset dy="0.799955"/>
      <feGaussianBlur stdDeviation="0.399977"/>
      <feComposite in2="hardAlpha" operator="out"/>
      <feColorMatrix type="matrix" values="0 0 0 0 0 0 0 0 0 0 0 0 0 0 0 0 0 0 0.13 0"/>
      <feBlend mode="normal" in2="BackgroundImageFix" result="effect1_dropShadow_7488_1981"/>
      <feBlend mode="normal" in="SourceGraphic" in2="effect1_dropShadow_7488_1981" result="shape"/>
    </filter>
    <filter id="filter1_d_7488_1981" x="5.34957" y="8" width="3.53292" height="5.09967" filterUnits="userSpaceOnUse" color-interpolation-filters="sRGB">
      <feFlood flood-opacity="0" result="BackgroundImageFix"/>
      <feColorMatrix in="SourceAlpha" type="matrix" values="0 0 0 0 0 0 0 0 0 0 0 0 0 0 0 0 0 0 127 0" result="hardAlpha"/>
      <feOffset dy="0.799955"/>
      <feGaussianBlur stdDeviation="0.399977"/>
      <feComposite in2="hardAlpha" operator="out"/>
      <feColorMatrix type="matrix" values="0 0 0 0 0 0 0 0 0 0 0 0 0 0 0 0 0 0 0.13 0"/>
      <feBlend mode="normal" in2="BackgroundImageFix" result="effect1_dropShadow_7488_1981"/>
      <feBlend mode="normal" in="SourceGraphic" in2="effect1_dropShadow_7488_1981" result="shape"/>
    </filter>
    <linearGradient id="paint0_linear_7488_1981" x1="29.5" y1="21.75" x2="22.1689" y2="-3.47267" gradientUnits="userSpaceOnUse">
      <stop stop-color="#7791C4"/>
      <stop offset="0.961728" stop-color="#5FBCFF"/>
    </linearGradient>
    <linearGradient id="paint1_linear_7488_1981" x1="12" y1="18" x2="11.3246" y2="5.24164" gradientUnits="userSpaceOnUse">
      <stop stop-color="#BDDDFF"/>
      <stop offset="1" stop-color="#4E9EE4"/>
    </linearGradient>
  </defs>
</svg>