<svg xmlns="http://www.w3.org/2000/svg" width="24" height="24" viewBox="0 0 24 24" fill="none">
  <path d="M3.05 7C3.05 6.47533 3.47533 6.05 4 6.05H15.6H20C20.5247 6.05 20.95 6.47533 20.95 7V9.21976V18C20.95 18.5247 20.5247 18.95 20 18.95H4C3.47533 18.95 3.05 18.5247 3.05 18V7Z" fill="url(#paint0_linear_7488_1309)" stroke="url(#paint1_linear_7488_1309)" stroke-width="0.1"/>
  <mask id="path-2-inside-1_7488_1309" fill="white">
    <path fill-rule="evenodd" clip-rule="evenodd" d="M9.84473 12.2486L12.5171 10.7057L9.84473 9.16279V10.2598H6.28171V11.1506H9.84473V12.2486ZM7.17234 12.9322L7.17234 11.8347L4.49998 13.3776L7.17234 14.9205L7.17234 13.823L10.7354 13.823V12.9322L7.17234 12.9322Z"/>
  </mask>
  <path fill-rule="evenodd" clip-rule="evenodd" d="M9.84473 12.2486L12.5171 10.7057L9.84473 9.16279V10.2598H6.28171V11.1506H9.84473V12.2486ZM7.17234 12.9322L7.17234 11.8347L4.49998 13.3776L7.17234 14.9205L7.17234 13.823L10.7354 13.823V12.9322L7.17234 12.9322Z" fill="white" fill-opacity="0.47"/>
  <path d="M12.5171 10.7057L12.5671 10.7923L12.7171 10.7057L12.5671 10.6191L12.5171 10.7057ZM9.84473 12.2486H9.74473V12.4218L9.89473 12.3352L9.84473 12.2486ZM9.84473 9.16279L9.89473 9.07619L9.74473 8.98958V9.16279H9.84473ZM9.84473 10.2598V10.3598H9.94473V10.2598H9.84473ZM6.28171 10.2598V10.1598H6.18171V10.2598H6.28171ZM6.28171 11.1506H6.18171V11.2506H6.28171V11.1506ZM9.84473 11.1506H9.94473V11.0506H9.84473V11.1506ZM7.17234 11.8347H7.27234L7.27234 11.6615L7.12234 11.7481L7.17234 11.8347ZM7.17234 12.9322H7.07234V13.0322H7.17234V12.9322ZM4.49998 13.3776L4.44998 13.291L4.29998 13.3776L4.44998 13.4642L4.49998 13.3776ZM7.17234 14.9205L7.12234 15.0071L7.27234 15.0937V14.9205H7.17234ZM7.17234 13.823V13.723H7.07234V13.823H7.17234ZM10.7354 13.823V13.923H10.8354V13.823H10.7354ZM10.7354 12.9322H10.8354V12.8322H10.7354V12.9322ZM12.4671 10.6191L9.79473 12.162L9.89473 12.3352L12.5671 10.7923L12.4671 10.6191ZM9.79473 9.24939L12.4671 10.7923L12.5671 10.6191L9.89473 9.07619L9.79473 9.24939ZM9.94473 10.2598V9.16279H9.74473V10.2598H9.94473ZM6.28171 10.3598H9.84473V10.1598H6.28171V10.3598ZM6.38171 11.1506V10.2598H6.18171V11.1506H6.38171ZM9.84473 11.0506H6.28171V11.2506H9.84473V11.0506ZM9.94473 12.2486V11.1506H9.74473V12.2486H9.94473ZM7.07234 11.8347L7.07234 12.9322H7.27234L7.27234 11.8347H7.07234ZM4.54998 13.4642L7.22234 11.9213L7.12234 11.7481L4.44998 13.291L4.54998 13.4642ZM7.22234 14.8338L4.54998 13.291L4.44998 13.4642L7.12234 15.0071L7.22234 14.8338ZM7.07234 13.823L7.07234 14.9205H7.27234L7.27234 13.823H7.07234ZM7.17234 13.923L10.7354 13.923V13.723L7.17234 13.723V13.923ZM10.8354 13.823V12.9322H10.6354V13.823H10.8354ZM10.7354 12.8322L7.17234 12.8322V13.0322L10.7354 13.0322V12.8322Z" fill="url(#paint2_linear_7488_1309)" mask="url(#path-2-inside-1_7488_1309)"/>
  <path d="M18.1799 9.6958H16.9009C17.043 9.79303 17.1514 9.90691 17.2261 10.0375C17.3032 10.168 17.3549 10.3125 17.3814 10.4708H18.1799V11.1708H17.3778C17.3224 11.4486 17.2056 11.693 17.0274 11.9041C16.8516 12.1125 16.6179 12.2694 16.3265 12.375C16.3891 12.4139 16.4469 12.4611 16.4999 12.5166C16.5529 12.5694 16.6011 12.6347 16.6444 12.7125L18.0498 15H17.2911C17.1442 15 17.037 14.9333 16.9696 14.8L15.752 12.7791C15.7111 12.7097 15.6665 12.6597 15.6184 12.6291C15.5702 12.5986 15.4979 12.5833 15.4016 12.5833H14.7549V11.9166H15.4558C15.7593 11.9166 16.0025 11.8486 16.1856 11.7125C16.371 11.5736 16.4951 11.393 16.5577 11.1708H14.7513V10.4708H16.5794C16.524 10.2347 16.4048 10.0514 16.2217 9.9208C16.0411 9.79025 15.793 9.72497 15.4775 9.72497H14.7549V8.99997H18.1799V9.6958Z" fill="white"/>
  <defs>
    <linearGradient id="paint0_linear_7488_1309" x1="12" y1="6" x2="13.1286" y2="21.6268" gradientUnits="userSpaceOnUse">
      <stop stop-color="#DDAF3A"/>
      <stop offset="0.947917" stop-color="#FFBC6D"/>
    </linearGradient>
    <linearGradient id="paint1_linear_7488_1309" x1="9.75" y1="6" x2="9.21468" y2="22.0318" gradientUnits="userSpaceOnUse">
      <stop stop-color="#FFE7CA"/>
      <stop offset="0.414121" stop-color="#FCCC91"/>
      <stop offset="1" stop-color="#F5B059"/>
    </linearGradient>
    <linearGradient id="paint2_linear_7488_1309" x1="11.9828" y1="8.33136" x2="6.16281" y2="14.1513" gradientUnits="userSpaceOnUse">
      <stop offset="0.110864" stop-color="white"/>
      <stop offset="0.560031" stop-color="white" stop-opacity="0"/>
      <stop offset="1" stop-color="white"/>
      <stop offset="1" stop-color="white" stop-opacity="0"/>
    </linearGradient>
  </defs>
</svg>