<svg width="24" height="24" viewBox="0 0 24 24" fill="none" xmlns="http://www.w3.org/2000/svg">
<g id="home cons">
<rect id="Rectangle 1527" x="6" y="13" width="12" height="8" fill="#D6DCFF"/>
<g id="Subtract">
<path fill-rule="evenodd" clip-rule="evenodd" d="M11.7083 3.09081L3.207 9.22236C2.81344 9.50622 3.01424 10.1279 3.49949 10.1279H4.46382V19.9999C4.46382 20.5522 4.91154 20.9999 5.46382 20.9999L6.4609 20.9999V14.1299C6.4609 13.5777 6.90861 13.1299 7.4609 13.1299H16.5426C17.0949 13.1299 17.5426 13.5777 17.5426 14.1299V20.9999L18.5377 20.9999C19.09 20.9999 19.5377 20.5522 19.5377 19.9999V10.1279H20.502C20.9873 10.1279 21.1881 9.50622 20.7945 9.22236L12.2932 3.09081C12.1186 2.96485 11.8829 2.96485 11.7083 3.09081Z" fill="url(#paint0_linear_2139_8930)"/>
<path d="M3.207 9.22236L3.2655 9.30347H3.2655L3.207 9.22236ZM11.7083 3.09081L11.7668 3.17192V3.17192L11.7083 3.09081ZM4.46382 10.1279H4.56382V10.0279H4.46382V10.1279ZM5.46382 20.9999L5.46382 20.8999H5.46382V20.9999ZM6.4609 20.9999L6.4609 21.0999H6.5609V20.9999H6.4609ZM17.5426 20.9999H17.4426V21.0999H17.5426L17.5426 20.9999ZM18.5377 20.9999V20.8999H18.5377L18.5377 20.9999ZM19.5377 10.1279V10.0279H19.4377V10.1279H19.5377ZM20.7945 9.22236L20.736 9.30347L20.7945 9.22236ZM12.2932 3.09081L12.3517 3.00971V3.00971L12.2932 3.09081ZM3.2655 9.30347L11.7668 3.17192L11.6498 3.00971L3.14851 9.14126L3.2655 9.30347ZM3.49949 10.0279C3.11129 10.0279 2.95065 9.53055 3.2655 9.30347L3.14851 9.14126C2.67624 9.48189 2.91719 10.2279 3.49949 10.2279V10.0279ZM4.46382 10.0279H3.49949V10.2279H4.46382V10.0279ZM4.56382 19.9999V10.1279H4.36382V19.9999H4.56382ZM5.46382 20.8999C4.96676 20.8999 4.56382 20.497 4.56382 19.9999H4.36382C4.36382 20.6075 4.85631 21.0999 5.46382 21.0999V20.8999ZM6.4609 20.8999L5.46382 20.8999L5.46382 21.0999L6.4609 21.0999L6.4609 20.8999ZM6.5609 20.9999V14.1299H6.3609V20.9999H6.5609ZM6.5609 14.1299C6.5609 13.6329 6.96384 13.2299 7.4609 13.2299V13.0299C6.85338 13.0299 6.3609 13.5224 6.3609 14.1299H6.5609ZM7.4609 13.2299H16.5426V13.0299H7.4609V13.2299ZM16.5426 13.2299C17.0397 13.2299 17.4426 13.6329 17.4426 14.1299H17.6426C17.6426 13.5224 17.1501 13.0299 16.5426 13.0299V13.2299ZM17.4426 14.1299V20.9999H17.6426V14.1299H17.4426ZM18.5377 20.8999L17.5426 20.8999L17.5426 21.0999L18.5377 21.0999L18.5377 20.8999ZM19.4377 19.9999C19.4377 20.497 19.0348 20.8999 18.5377 20.8999V21.0999C19.1452 21.0999 19.6377 20.6074 19.6377 19.9999H19.4377ZM19.4377 10.1279V19.9999H19.6377V10.1279H19.4377ZM20.502 10.0279H19.5377V10.2279H20.502V10.0279ZM20.736 9.30347C21.0509 9.53055 20.8902 10.0279 20.502 10.0279V10.2279C21.0843 10.2279 21.3253 9.48189 20.853 9.14126L20.736 9.30347ZM12.2348 3.17192L20.736 9.30347L20.853 9.14126L12.3517 3.00971L12.2348 3.17192ZM11.7668 3.17192C11.9065 3.07115 12.095 3.07114 12.2348 3.17192L12.3517 3.00971C12.1422 2.85855 11.8594 2.85855 11.6498 3.00971L11.7668 3.17192Z" fill="url(#paint1_linear_2139_8930)"/>
</g>
<path id="Vector 71" d="M5.5 9.5L12 5L19 10" stroke="white" stroke-opacity="0.24" stroke-width="0.5" stroke-linecap="round"/>
<rect id="Rectangle 1518" x="10" y="17" width="2" height="2" rx="0.3" fill="#C0C9F8"/>
<rect id="Rectangle 1520" x="8" y="17" width="2" height="2" rx="0.3" fill="#C0C9F8"/>
<rect id="Rectangle 1528" x="14" y="17" width="2" height="2" rx="0.3" fill="#C0C9F8"/>
<rect id="Rectangle 1522" x="12" y="17" width="2" height="2" rx="0.3" fill="#C0C9F8"/>
<rect id="Rectangle 1519" x="8" y="19" width="2" height="2" rx="0.3" fill="#C0C9F8"/>
<rect id="Rectangle 1521" x="10" y="19" width="2" height="2" rx="0.3" fill="#C0C9F8"/>
<rect id="Rectangle 1529" x="14" y="19" width="2" height="2" rx="0.3" fill="#C0C9F8"/>
<rect id="Rectangle 1523" x="12" y="19" width="2" height="2" rx="0.3" fill="#C0C9F8"/>
</g>
<defs>
<linearGradient id="paint0_linear_2139_8930" x1="12.0018" y1="-0.937132" x2="12.0008" y2="20.9999" gradientUnits="userSpaceOnUse">
<stop stop-color="#BFC9FF"/>
<stop offset="1" stop-color="#6F7FD2"/>
</linearGradient>
<linearGradient id="paint1_linear_2139_8930" x1="12.0008" y1="2.99634" x2="12.0008" y2="20.9999" gradientUnits="userSpaceOnUse">
<stop stop-color="#6975AD"/>
<stop offset="1" stop-color="#91A3FF"/>
</linearGradient>
</defs>
</svg>
