<svg xmlns="http://www.w3.org/2000/svg" width="24" height="24" viewBox="0 0 24 24" fill="none">
  <path d="M6.08021 6.59984L6.0802 6.59982C5.82665 6.23168 5.53447 6.05528 5.25128 6.05304C4.96837 6.0508 4.67668 6.22227 4.42361 6.58927C4.33344 6.72137 4.24816 6.86048 4.16254 7.00111C4.15678 7.01056 4.15103 7.02002 4.14527 7.02949C4.06565 7.16033 3.98543 7.29215 3.9013 7.41878C3.78797 7.59934 3.64994 7.7445 3.49498 7.84374C3.35498 7.93339 3.20399 7.9837 3.05001 7.99106L3.05053 11.2671C3.26279 11.2606 3.44204 11.1632 3.6038 11.005C3.77879 10.8338 3.9303 10.5944 4.07655 10.33C4.2238 10.0637 4.38232 9.81872 4.56897 9.63896C4.75655 9.45831 4.97468 9.34164 5.23925 9.33735L5.23927 9.33735C5.51065 9.33306 5.73213 9.45036 5.92185 9.63457C6.11047 9.81772 6.2702 10.0693 6.4202 10.3396L6.42028 10.3397C6.57271 10.6165 6.73308 10.861 6.91808 11.0309C7.10174 11.1995 7.30745 11.2927 7.55397 11.2728L7.55416 11.2728C7.83111 11.2514 8.09884 11.0762 8.30265 10.7704L8.30322 10.7695L8.30323 10.7695C8.39274 10.6411 8.47812 10.506 8.56412 10.37C8.59064 10.3281 8.61723 10.2861 8.64401 10.2441C8.75713 10.0668 8.87336 9.89151 9.00099 9.73522C9.24148 9.44035 9.53681 9.30628 9.83248 9.33404C10.127 9.36168 10.4103 9.54879 10.631 9.8724C10.7159 9.99692 10.7983 10.1267 10.8802 10.2556C10.9135 10.3081 10.9468 10.3604 10.98 10.4121C11.0956 10.5919 11.2123 10.7661 11.3381 10.9222C11.5552 11.1914 11.8167 11.3038 12.0706 11.2803C12.3256 11.2566 12.584 11.0947 12.7906 10.7924L12.7906 10.7924C12.921 10.602 13.0422 10.3979 13.1644 10.1924C13.1977 10.1362 13.2312 10.08 13.2649 10.0239L13.2649 10.0238C13.575 9.50939 13.9657 9.28862 14.3581 9.34788C14.746 9.40644 15.1126 9.73599 15.3845 10.2686C15.5285 10.5505 15.6837 10.8032 15.8658 10.9852C16.047 11.1662 16.2525 11.275 16.4995 11.275H16.4996C16.7341 11.2758 16.9309 11.175 17.1065 11.0073C17.283 10.8386 17.4357 10.6044 17.5798 10.3437C17.7249 10.081 17.8807 9.83359 18.0631 9.65056C18.2463 9.46676 18.4594 9.34489 18.7177 9.34058C19.2312 9.33201 19.5912 9.72317 19.8845 10.2651L19.8845 10.2651C20.0344 10.5424 20.1893 10.7988 20.3702 10.9836C20.5381 11.1551 20.7254 11.262 20.95 11.2687V7.99402C20.5395 7.96053 20.2415 7.66911 19.9944 7.26548L19.9944 7.26537C19.9538 7.19873 19.914 7.13175 19.8743 7.065C19.7803 6.90695 19.6872 6.75025 19.587 6.60277L19.587 6.60271C19.3324 6.2267 19.0371 6.04951 18.751 6.05072C18.4648 6.05194 18.1694 6.23172 17.9148 6.61063L17.9147 6.61065C17.832 6.73369 17.7537 6.86412 17.6746 6.99587L17.6626 7.01575C17.5797 7.15379 17.4957 7.29286 17.4058 7.42325L17.4058 7.42333C17.1408 7.80602 16.8199 8.0047 16.4911 8.00059C16.1624 7.99649 15.8436 7.79005 15.5821 7.40191C15.5821 7.40189 15.5821 7.40188 15.5821 7.40186L15.6235 7.37392C15.5385 7.24804 15.4584 7.1146 15.3783 6.9811C15.3015 6.85314 15.2246 6.72513 15.1434 6.60368L15.1018 6.63147C14.8387 6.23791 14.5396 6.05153 14.2506 6.05032C13.9618 6.04911 13.6633 6.23283 13.4014 6.62424L13.4012 6.62447C13.3183 6.74687 13.2407 6.8764 13.1624 7.0072L13.1556 7.01853C13.0752 7.1527 12.9939 7.28797 12.9064 7.41516M6.08021 6.59984L12.8652 7.38682M6.08021 6.59984C6.19613 6.768 6.31206 6.93815 6.42815 7.10853C6.55466 7.29421 6.68136 7.48018 6.80849 7.66419L6.80803 7.66451L6.81311 7.66993C7.04823 7.92128 7.3291 8.03031 7.61016 7.99188C7.88995 7.95362 8.16005 7.77062 8.37877 7.45819L8.37877 7.45819C8.46447 7.33575 8.54435 7.20468 8.62278 7.07383C8.63387 7.05532 8.64493 7.03682 8.65598 7.01835C8.7233 6.90576 8.79002 6.79417 8.85979 6.68744L8.85981 6.6874C9.1413 6.25599 9.44936 6.05225 9.74608 6.05002C10.0426 6.04779 10.3504 6.24665 10.6317 6.67389L10.6319 6.67412C10.7051 6.78393 10.7742 6.89971 10.844 7.0167C10.8502 7.02712 10.8565 7.03755 10.8627 7.04799C10.9386 7.17511 11.0158 7.30299 11.0991 7.42263M6.08021 6.59984L11.1402 7.39407M12.9064 7.41516L12.8652 7.38682M12.9064 7.41516C12.9064 7.41515 12.9064 7.41515 12.9064 7.41514L12.8652 7.38682M12.9064 7.41516C12.6441 7.79673 12.3284 7.99809 12.0035 7.99939C11.6786 8.00069 11.3623 7.80181 11.0991 7.42263M12.8652 7.38682C12.3512 8.1345 11.6557 8.13691 11.1402 7.39407M11.0991 7.42263L11.1402 7.39407M11.0991 7.42263C11.0991 7.42261 11.0991 7.4226 11.0991 7.42258L11.1402 7.39407" fill="url(#paint0_linear_7488_2852)" stroke="url(#paint1_linear_7488_2852)" stroke-width="0.1"/>
  <path d="M3 11.0497C3.01687 11.0504 3.03353 11.0505 3.05 11.0499V11.0999C3.03353 11.1004 3.01687 11.1004 3 11.0997L3 11.0497ZM3 14V13.95H3.05V14H3ZM20.95 13.95V14H21V13.95H20.95ZM20.95 11.0519C20.9665 11.0524 20.9831 11.0524 21 11.0517V11.1017C20.9831 11.1024 20.9665 11.1024 20.95 11.1019V11.0519ZM13.3549 9.512C13.3549 9.51199 13.3549 9.51198 13.3549 9.51196L13.3099 9.49028L13.3548 9.51224C13.3548 9.51216 13.3549 9.51208 13.3549 9.512ZM8.38828 10.4349C8.38836 10.4347 8.38843 10.4346 8.3885 10.4345C8.38857 10.4343 8.38864 10.4342 8.38871 10.4341L8.34475 10.4103L8.38828 10.4349ZM6.32964 9.89744C6.32965 9.89746 6.32966 9.89748 6.32967 9.8975L6.37524 9.87691L6.32964 9.89744Z" fill="url(#paint2_linear_7488_2852)" stroke="url(#paint3_linear_7488_2852)" stroke-width="0.1"/>
  <g filter="url(#filter0_d_7488_2852)">
    <path d="M3 12.9203C3.50204 12.9342 3.82582 12.5664 4.11899 12.132C4.41216 11.6976 4.74185 11.3451 5.23906 11.3398C5.74808 11.3332 6.07562 11.6976 6.37523 12.1393C6.68237 12.5935 7.03031 12.9599 7.55651 12.9256C7.85355 12.9065 8.13434 12.753 8.34475 12.4945C8.57993 12.2172 8.7888 11.9003 9.04278 11.6494C9.5067 11.1833 10.1623 11.2434 10.5924 11.759C10.8303 12.0449 11.0461 12.3624 11.3017 12.6219C11.7522 13.0801 12.4083 13.0226 12.8336 12.5136C13.0006 12.3156 13.1558 12.0951 13.3099 11.8818C13.9177 11.0539 14.8042 11.2163 15.3411 12.0799C15.6306 12.542 15.9731 12.9256 16.5004 12.9269C17.0019 12.9269 17.3321 12.5777 17.6242 12.1426C17.9163 11.7075 18.2288 11.3503 18.7191 11.3424C19.2093 11.3345 19.5492 11.6356 19.8407 12.0779C20.1409 12.5328 20.4716 12.9361 21 12.9216V17C21 17.5523 20.5523 18 20 18H4C3.44772 18 3 17.5523 3 17V12.9203Z" fill="url(#paint4_linear_7488_2852)"/>
    <path d="M3 12.9203C3.01687 12.9208 3.03353 12.9208 3.05 12.9204V12.9704C3.03353 12.9708 3.01686 12.9708 3 12.9703L3 12.9203ZM20.95 12.9217C20.9665 12.9221 20.9831 12.9221 21 12.9216V12.9716C20.9831 12.9721 20.9665 12.9721 20.95 12.9718V12.9217ZM13.3503 11.9113C13.3503 11.9112 13.3504 11.9112 13.3504 11.9111L13.3099 11.8818L13.3502 11.9114C13.3502 11.9114 13.3502 11.9113 13.3503 11.9113ZM8.38288 12.5268C8.38299 12.5267 8.3831 12.5266 8.3832 12.5264C8.38331 12.5263 8.38342 12.5262 8.38353 12.526L8.34475 12.4945L8.38288 12.5268Z" stroke="url(#paint5_linear_7488_2852)" stroke-width="0.1"/>
  </g>
  <defs>
    <filter id="filter0_d_7488_2852" x="3" y="11.3333" width="18" height="6.66667" filterUnits="userSpaceOnUse" color-interpolation-filters="sRGB">
      <feFlood flood-opacity="0" result="BackgroundImageFix"/>
      <feColorMatrix in="SourceAlpha" type="matrix" values="0 0 0 0 0 0 0 0 0 0 0 0 0 0 0 0 0 0 127 0" result="hardAlpha"/>
      <feOffset/>
      <feComposite in2="hardAlpha" operator="out"/>
      <feColorMatrix type="matrix" values="0 0 0 0 0 0 0 0 0 0 0 0 0 0 0 0 0 0 0.25 0"/>
      <feBlend mode="normal" in2="BackgroundImageFix" result="effect1_dropShadow_7488_2852"/>
      <feBlend mode="normal" in="SourceGraphic" in2="effect1_dropShadow_7488_2852" result="shape"/>
    </filter>
    <linearGradient id="paint0_linear_7488_2852" x1="12" y1="6" x2="12" y2="11.3333" gradientUnits="userSpaceOnUse">
      <stop stop-color="#46E7F1"/>
      <stop offset="1" stop-color="#B3F1FF"/>
    </linearGradient>
    <linearGradient id="paint1_linear_7488_2852" x1="4.5" y1="6" x2="20.25" y2="9" gradientUnits="userSpaceOnUse">
      <stop stop-color="#3EF0FD"/>
      <stop offset="1" stop-color="#40B8C2"/>
    </linearGradient>
    <linearGradient id="paint2_linear_7488_2852" x1="12" y1="8.66667" x2="12.3955" y2="17.2312" gradientUnits="userSpaceOnUse">
      <stop stop-color="#D8FDFF"/>
      <stop offset="1" stop-color="#B3F1FF"/>
    </linearGradient>
    <linearGradient id="paint3_linear_7488_2852" x1="5.25" y1="9.75001" x2="20.25" y2="11.25" gradientUnits="userSpaceOnUse">
      <stop stop-color="#91E0EB"/>
      <stop offset="1" stop-color="#B4EAF2"/>
    </linearGradient>
    <linearGradient id="paint4_linear_7488_2852" x1="12" y1="11.3333" x2="11.9034" y2="17.9999" gradientUnits="userSpaceOnUse">
      <stop stop-color="#46E7F1"/>
      <stop offset="1" stop-color="#56B8CE"/>
    </linearGradient>
    <linearGradient id="paint5_linear_7488_2852" x1="12" y1="11.3333" x2="12" y2="18" gradientUnits="userSpaceOnUse">
      <stop stop-color="#49E0EC"/>
      <stop offset="1" stop-opacity="0"/>
    </linearGradient>
  </defs>
</svg>