<svg xmlns="http://www.w3.org/2000/svg" width="24" height="24" viewBox="0 0 24 24" fill="none">
  <path d="M5.05 4C5.05 3.47533 5.47533 3.05 6 3.05H14.8H18C18.5247 3.05 18.95 3.47533 18.95 4V7.45813V20C18.95 20.5247 18.5247 20.95 18 20.95H6C5.47533 20.95 5.05 20.5247 5.05 20V4Z" fill="url(#paint0_linear_7488_2139)" stroke="url(#paint1_linear_7488_2139)" stroke-width="0.1"/>
  <rect x="6" y="14" width="12" height="1" rx="0.5" fill="white"/>
  <rect x="6" y="16" width="8" height="1" rx="0.5" fill="white"/>
  <rect x="6" y="18" width="6" height="1" rx="0.5" fill="white"/>
  <path d="M16.4286 6.69583H15.1496C15.2917 6.79306 15.4001 6.90694 15.4748 7.0375C15.5519 7.16806 15.6036 7.3125 15.6301 7.47083H16.4286V8.17083H15.6265C15.5711 8.44861 15.4543 8.69306 15.2761 8.90417C15.1003 9.1125 14.8666 9.26944 14.5752 9.375C14.6378 9.41389 14.6956 9.46111 14.7486 9.51667C14.8016 9.56944 14.8498 9.63472 14.8931 9.7125L16.2985 12H15.5398C15.3929 12 15.2857 11.9333 15.2183 11.8L14.0008 9.77917C13.9598 9.70972 13.9152 9.65972 13.8671 9.62917C13.8189 9.59861 13.7467 9.58333 13.6503 9.58333H13.0036V8.91667H13.7045C14.008 8.91667 14.2512 8.84861 14.4343 8.7125C14.6198 8.57361 14.7438 8.39306 14.8064 8.17083H13V7.47083H14.8281C14.7727 7.23472 14.6535 7.05139 14.4704 6.92083C14.2898 6.79028 14.0417 6.725 13.7262 6.725H13.0036V6H16.4286V6.69583Z" fill="white"/>
  <defs>
    <linearGradient id="paint0_linear_7488_2139" x1="12" y1="3" x2="12" y2="17" gradientUnits="userSpaceOnUse">
      <stop stop-color="#2BA880"/>
      <stop offset="1" stop-color="#2DCDAE"/>
    </linearGradient>
    <linearGradient id="paint1_linear_7488_2139" x1="5.7" y1="3" x2="19.3078" y2="20.8054" gradientUnits="userSpaceOnUse">
      <stop stop-color="#17B58B"/>
      <stop offset="1" stop-color="#7EFFDE"/>
    </linearGradient>
  </defs>
</svg>