<svg xmlns="http://www.w3.org/2000/svg" width="24" height="24" viewBox="0 0 24 24" fill="none">
  <path d="M6.72187 4.23178C6.90158 4.08202 7.12811 4 7.36205 4H19C19.5523 4 20 4.44772 20 5V16.6379C20 16.8719 19.918 17.0984 19.7682 17.2781L17.8701 19.5559C17.6411 19.8307 17.2828 19.9622 16.9305 19.901L6.6933 18.1206C6.27742 18.0482 5.95175 17.7226 5.87943 17.3067L4.09904 7.0695C4.03777 6.71715 4.16932 6.3589 4.44407 6.12994L6.72187 4.23178Z" fill="url(#paint0_linear_7488_2439)"/>
  <rect x="4.05" y="6.05" width="13.9" height="13.9" rx="0.95" fill="url(#paint1_linear_7488_2439)" stroke="url(#paint2_linear_7488_2439)" stroke-width="0.1"/>
  <path fill-rule="evenodd" clip-rule="evenodd" d="M12 4L10 6V12H4V14H10V20H12V14H18L20 12V10L18 12H12V6L14 4H12Z" fill="white" fill-opacity="0.43"/>
  <path d="M10 6L9.96464 5.96464L9.95 5.97929V6H10ZM12 4V3.95H11.9793L11.9646 3.96464L12 4ZM10 12V12.05H10.05V12H10ZM4 12V11.95H3.95V12H4ZM4 14H3.95V14.05H4V14ZM10 14H10.05V13.95H10V14ZM10 20H9.95V20.05H10V20ZM12 20V20.05H12.05V20H12ZM12 14V13.95H11.95V14H12ZM18 14V14.05H18.0207L18.0354 14.0354L18 14ZM20 12L20.0354 12.0354L20.05 12.0207V12H20ZM20 10H20.05V9.87929L19.9646 9.96464L20 10ZM18 12V12.05H18.0207L18.0354 12.0354L18 12ZM12 12H11.95V12.05H12V12ZM12 6L11.9646 5.96464L11.95 5.97929V6H12ZM14 4L14.0354 4.03536L14.1207 3.95H14V4ZM10.0354 6.03536L12.0354 4.03536L11.9646 3.96464L9.96464 5.96464L10.0354 6.03536ZM10.05 12V6H9.95V12H10.05ZM4 12.05H10V11.95H4V12.05ZM4.05 14V12H3.95V14H4.05ZM10 13.95H4V14.05H10V13.95ZM10.05 20V14H9.95V20H10.05ZM12 19.95H10V20.05H12V19.95ZM11.95 14V20H12.05V14H11.95ZM18 13.95H12V14.05H18V13.95ZM18.0354 14.0354L20.0354 12.0354L19.9646 11.9646L17.9646 13.9646L18.0354 14.0354ZM20.05 12V10H19.95V12H20.05ZM19.9646 9.96464L17.9646 11.9646L18.0354 12.0354L20.0354 10.0354L19.9646 9.96464ZM12 12.05H18V11.95H12V12.05ZM11.95 6V12H12.05V6H11.95ZM13.9646 3.96464L11.9646 5.96464L12.0354 6.03536L14.0354 4.03536L13.9646 3.96464ZM12 4.05H14V3.95H12V4.05Z" fill="#F4FEFE"/>
  <defs>
    <linearGradient id="paint0_linear_7488_2439" x1="8" y1="3" x2="12" y2="20" gradientUnits="userSpaceOnUse">
      <stop stop-color="#9CDBDC"/>
      <stop offset="0.3125" stop-color="#CAFFFF"/>
      <stop offset="1" stop-color="#6DD0D0"/>
    </linearGradient>
    <linearGradient id="paint1_linear_7488_2439" x1="8" y1="1" x2="11" y2="20" gradientUnits="userSpaceOnUse">
      <stop stop-color="#82C8C9"/>
      <stop offset="1" stop-color="#81EAEA"/>
    </linearGradient>
    <linearGradient id="paint2_linear_7488_2439" x1="5" y1="5" x2="17" y2="20" gradientUnits="userSpaceOnUse">
      <stop stop-color="#9DEBEC"/>
      <stop offset="0.465866" stop-color="#C9FEFF"/>
      <stop offset="1" stop-color="#7BD8D8"/>
    </linearGradient>
  </defs>
</svg>