<svg width="16" height="16" viewBox="0 0 16 16" fill="none" xmlns="http://www.w3.org/2000/svg">
<path d="M10.05 5.05H12.0316C12.3136 5.05 12.5809 5.17523 12.7614 5.39182L14.7298 7.75387C14.8721 7.9246 14.95 8.13981 14.95 8.36205V11.95H10.05V5.05Z" fill="url(#paint0_linear_2086_27361)" stroke="url(#paint1_linear_2086_27361)" stroke-width="0.1"/>
<path d="M1.05 3.72859C1.05 3.35382 1.35382 3.05 1.72859 3.05H10.2714C10.6462 3.05 10.95 3.35382 10.95 3.72859V11.95H1.05V3.72859Z" fill="url(#paint2_linear_2086_27361)" stroke="url(#paint3_linear_2086_27361)" stroke-width="0.1"/>
<path d="M12 6H12.5L14 8H12V6Z" fill="white"/>
<path d="M3.63737 12.2083C3.63737 12.5995 3.32024 12.9167 2.92904 12.9167C2.53783 12.9167 2.2207 12.5995 2.2207 12.2083C2.2207 11.8171 2.53783 11.5 2.92904 11.5C3.32024 11.5 3.63737 11.8171 3.63737 12.2083Z" fill="#ECECEC" stroke="url(#paint4_linear_2086_27361)"/>
<ellipse cx="2.92915" cy="12.2083" rx="0.402778" ry="0.402778" fill="white"/>
<path d="M13.3034 12.2083C13.3034 12.5995 12.9863 12.9167 12.5951 12.9167C12.2039 12.9167 11.8867 12.5995 11.8867 12.2083C11.8867 11.8171 12.2039 11.5 12.5951 11.5C12.9863 11.5 13.3034 11.8171 13.3034 12.2083Z" fill="#ECECEC" stroke="url(#paint5_linear_2086_27361)"/>
<ellipse cx="12.5952" cy="12.2083" rx="0.402778" ry="0.402778" fill="white"/>
<rect x="2.05" y="4.05" width="0.9" height="4.9" rx="0.45" fill="url(#paint6_linear_2086_27361)" stroke="url(#paint7_linear_2086_27361)" stroke-width="0.1"/>
<rect x="4.05" y="4.05" width="0.9" height="4.9" rx="0.45" fill="url(#paint8_linear_2086_27361)" stroke="url(#paint9_linear_2086_27361)" stroke-width="0.1"/>
<rect x="6.05" y="4.05" width="0.9" height="4.9" rx="0.45" fill="url(#paint10_linear_2086_27361)" stroke="url(#paint11_linear_2086_27361)" stroke-width="0.1"/>
<rect x="8.05" y="4.05" width="0.9" height="4.9" rx="0.45" fill="url(#paint12_linear_2086_27361)" stroke="url(#paint13_linear_2086_27361)" stroke-width="0.1"/>
<defs>
<linearGradient id="paint0_linear_2086_27361" x1="12.5" y1="5" x2="12.5" y2="12" gradientUnits="userSpaceOnUse">
<stop stop-color="#FCD277"/>
<stop offset="0.300947" stop-color="#FFDF9C"/>
<stop offset="1" stop-color="#FCD076"/>
</linearGradient>
<linearGradient id="paint1_linear_2086_27361" x1="12.5" y1="5" x2="12.5" y2="12" gradientUnits="userSpaceOnUse">
<stop stop-color="#FFD18F"/>
<stop offset="0.0001" stop-color="#D1A25E" stop-opacity="0.989583"/>
<stop offset="1" stop-color="#FDAC39" stop-opacity="0"/>
</linearGradient>
<linearGradient id="paint2_linear_2086_27361" x1="6" y1="3" x2="6" y2="12" gradientUnits="userSpaceOnUse">
<stop offset="0.0001" stop-color="#FCD277"/>
<stop offset="1" stop-color="#FCD076"/>
</linearGradient>
<linearGradient id="paint3_linear_2086_27361" x1="6" y1="3" x2="6" y2="12" gradientUnits="userSpaceOnUse">
<stop stop-color="#FFD18F"/>
<stop offset="0.0001" stop-color="#D1A25E" stop-opacity="0.989583"/>
<stop offset="1" stop-color="#FDAC39" stop-opacity="0"/>
</linearGradient>
<linearGradient id="paint4_linear_2086_27361" x1="2.92904" y1="11" x2="7.15821" y2="11" gradientUnits="userSpaceOnUse">
<stop stop-color="#919191" stop-opacity="0.989583"/>
<stop offset="1" stop-color="white"/>
</linearGradient>
<linearGradient id="paint5_linear_2086_27361" x1="12.5951" y1="11" x2="16.8242" y2="11" gradientUnits="userSpaceOnUse">
<stop stop-color="#919191" stop-opacity="0.989583"/>
<stop offset="1" stop-color="white"/>
</linearGradient>
<linearGradient id="paint6_linear_2086_27361" x1="2.5" y1="4" x2="2.5" y2="9" gradientUnits="userSpaceOnUse">
<stop stop-color="white" stop-opacity="0.63"/>
<stop offset="1" stop-color="white" stop-opacity="0"/>
<stop offset="1" stop-color="#FF5215" stop-opacity="0"/>
</linearGradient>
<linearGradient id="paint7_linear_2086_27361" x1="2.5" y1="4" x2="2.5" y2="9" gradientUnits="userSpaceOnUse">
<stop stop-color="white" stop-opacity="0.16"/>
<stop offset="1" stop-color="white" stop-opacity="0.14"/>
</linearGradient>
<linearGradient id="paint8_linear_2086_27361" x1="4.5" y1="4" x2="4.5" y2="9" gradientUnits="userSpaceOnUse">
<stop stop-color="white" stop-opacity="0.63"/>
<stop offset="1" stop-color="white" stop-opacity="0"/>
<stop offset="1" stop-color="#FF5215" stop-opacity="0"/>
</linearGradient>
<linearGradient id="paint9_linear_2086_27361" x1="4.5" y1="4" x2="4.5" y2="9" gradientUnits="userSpaceOnUse">
<stop stop-color="white" stop-opacity="0.16"/>
<stop offset="1" stop-color="white" stop-opacity="0.14"/>
</linearGradient>
<linearGradient id="paint10_linear_2086_27361" x1="6.5" y1="4" x2="6.5" y2="9" gradientUnits="userSpaceOnUse">
<stop stop-color="white" stop-opacity="0.63"/>
<stop offset="1" stop-color="white" stop-opacity="0"/>
<stop offset="1" stop-color="#FF5215" stop-opacity="0"/>
</linearGradient>
<linearGradient id="paint11_linear_2086_27361" x1="6.5" y1="4" x2="6.5" y2="9" gradientUnits="userSpaceOnUse">
<stop stop-color="white" stop-opacity="0.16"/>
<stop offset="1" stop-color="white" stop-opacity="0.14"/>
</linearGradient>
<linearGradient id="paint12_linear_2086_27361" x1="8.5" y1="4" x2="8.5" y2="9" gradientUnits="userSpaceOnUse">
<stop stop-color="white" stop-opacity="0.63"/>
<stop offset="1" stop-color="white" stop-opacity="0"/>
<stop offset="1" stop-color="#FF5215" stop-opacity="0"/>
</linearGradient>
<linearGradient id="paint13_linear_2086_27361" x1="8.5" y1="4" x2="8.5" y2="9" gradientUnits="userSpaceOnUse">
<stop stop-color="white" stop-opacity="0.16"/>
<stop offset="1" stop-color="white" stop-opacity="0.14"/>
</linearGradient>
</defs>
</svg>
