<svg xmlns="http://www.w3.org/2000/svg" width="24" height="24" viewBox="0 0 24 24" fill="none">
  <path d="M20.95 18C20.95 18.5247 20.5247 18.95 20 18.95L4.00003 18.95C3.47535 18.95 3.05002 18.5246 3.05003 18L3.05031 9.61177L3.05007 6.00007C3.05003 5.47537 3.47537 5.05 4.00007 5.05L20 5.05C20.5247 5.05 20.95 5.47533 20.95 6L20.95 18Z" fill="url(#paint0_linear_7488_2871)" stroke="url(#paint1_linear_7488_2871)" stroke-width="0.1"/>
  <mask id="path-2-inside-1_7488_2871" fill="white">
    <path fill-rule="evenodd" clip-rule="evenodd" d="M9 13.214C9 13.1426 9.03835 13.0771 9.09873 13.039C9.94071 12.5077 10.5 11.5692 10.5 10.5C10.5 8.84315 9.15685 7.5 7.5 7.5C5.84315 7.5 4.5 8.84315 4.5 10.5C4.5 11.5692 5.05929 12.5077 5.90127 13.039C5.96165 13.0771 6 13.1426 6 13.214V16.0172C6 16.1953 6.21543 16.2846 6.34142 16.1586L7.35858 15.1414C7.43668 15.0633 7.56332 15.0633 7.64142 15.1414L8.65858 16.1586C8.78457 16.2846 9 16.1953 9 16.0172V13.214Z"/>
  </mask>
  <path fill-rule="evenodd" clip-rule="evenodd" d="M9 13.214C9 13.1426 9.03835 13.0771 9.09873 13.039C9.94071 12.5077 10.5 11.5692 10.5 10.5C10.5 8.84315 9.15685 7.5 7.5 7.5C5.84315 7.5 4.5 8.84315 4.5 10.5C4.5 11.5692 5.05929 12.5077 5.90127 13.039C5.96165 13.0771 6 13.1426 6 13.214V16.0172C6 16.1953 6.21543 16.2846 6.34142 16.1586L7.35858 15.1414C7.43668 15.0633 7.56332 15.0633 7.64142 15.1414L8.65858 16.1586C8.78457 16.2846 9 16.1953 9 16.0172V13.214Z" fill="white" fill-opacity="0.5"/>
  <path d="M8.65858 16.1586L8.72929 16.0879L8.65858 16.1586ZM6.34142 16.1586L6.27071 16.0879L6.34142 16.1586ZM5.90127 13.039L5.95463 12.9544L5.90127 13.039ZM7.35858 15.1414L7.28787 15.0707L7.35858 15.1414ZM7.64142 15.1414L7.71213 15.0707L7.64142 15.1414ZM10.4 10.5C10.4 11.5334 9.85953 12.4407 9.04537 12.9544L9.1521 13.1235C10.0219 12.5747 10.6 11.6049 10.6 10.5H10.4ZM7.5 7.6C9.10163 7.6 10.4 8.89837 10.4 10.5H10.6C10.6 8.78792 9.21208 7.4 7.5 7.4V7.6ZM4.6 10.5C4.6 8.89837 5.89837 7.6 7.5 7.6V7.4C5.78792 7.4 4.4 8.78792 4.4 10.5H4.6ZM5.95463 12.9544C5.14047 12.4407 4.6 11.5334 4.6 10.5H4.4C4.4 11.6049 4.97812 12.5747 5.8479 13.1235L5.95463 12.9544ZM5.9 13.214V16.0172H6.1V13.214H5.9ZM6.41213 16.2293L7.42929 15.2121L7.28787 15.0707L6.27071 16.0879L6.41213 16.2293ZM7.57071 15.2121L8.58787 16.2293L8.72929 16.0879L7.71213 15.0707L7.57071 15.2121ZM9.1 16.0172V13.214H8.9V16.0172H9.1ZM8.58787 16.2293C8.77686 16.4183 9.1 16.2844 9.1 16.0172H8.9C8.9 16.1062 8.79229 16.1509 8.72929 16.0879L8.58787 16.2293ZM5.9 16.0172C5.9 16.2844 6.22314 16.4183 6.41213 16.2293L6.27071 16.0879C6.20771 16.1509 6.1 16.1062 6.1 16.0172H5.9ZM5.8479 13.1235C5.88108 13.1445 5.9 13.179 5.9 13.214H6.1C6.1 13.1062 6.04222 13.0097 5.95463 12.9544L5.8479 13.1235ZM7.42929 15.2121C7.46834 15.1731 7.53166 15.1731 7.57071 15.2121L7.71213 15.0707C7.59497 14.9536 7.40503 14.9536 7.28787 15.0707L7.42929 15.2121ZM9.04537 12.9544C8.95778 13.0097 8.9 13.1062 8.9 13.214H9.1C9.1 13.179 9.11893 13.1445 9.1521 13.1235L9.04537 12.9544Z" fill="url(#paint2_linear_7488_2871)" mask="url(#path-2-inside-1_7488_2871)"/>
  <circle cx="7.5" cy="10.5" r="1.5" fill="#FFFCFE"/>
  <rect x="12" y="9" width="6" height="0.75" rx="0.375" fill="white"/>
  <rect x="12" y="11.25" width="4.5" height="0.75" rx="0.375" fill="white"/>
  <rect x="12" y="13.5" width="3" height="0.75" rx="0.375" fill="white"/>
  <defs>
    <linearGradient id="paint0_linear_7488_2871" x1="23.25" y1="21" x2="-8.27275" y2="-0.887068" gradientUnits="userSpaceOnUse">
      <stop stop-color="#FEA6A8"/>
      <stop offset="1" stop-color="#AD77E2"/>
    </linearGradient>
    <linearGradient id="paint1_linear_7488_2871" x1="12" y1="19" x2="2.73179" y2="6.28932" gradientUnits="userSpaceOnUse">
      <stop stop-color="#FFB9D4"/>
      <stop offset="1" stop-color="#DC9CCF"/>
    </linearGradient>
    <linearGradient id="paint2_linear_7488_2871" x1="6" y1="6.04707" x2="7.40907" y2="16.2301" gradientUnits="userSpaceOnUse">
      <stop stop-color="white"/>
      <stop offset="1" stop-color="white" stop-opacity="0"/>
    </linearGradient>
  </defs>
</svg>