<svg width="159" height="85" viewBox="0 0 159 85" fill="none" xmlns="http://www.w3.org/2000/svg">
<rect x="33.3839" y="0.545" width="99.7713" height="83.91" rx="5.995" fill="white" stroke="#B5C6ED" stroke-width="1.09" stroke-dasharray="2.18 2.18"/>
<mask id="path-2-inside-1_1207_105457" fill="white">
<ellipse cx="1.95468" cy="15.8382" rx="1.95468" ry="1.94954"/>
</mask>
<ellipse cx="1.95468" cy="15.8382" rx="1.95468" ry="1.94954" fill="white"/>
<path d="M1.72935 15.8382C1.72935 15.7055 1.83564 15.6078 1.95468 15.6078V19.9678C4.23279 19.9678 6.08935 18.1243 6.08935 15.8382H1.72935ZM1.95468 15.6078C2.07371 15.6078 2.18 15.7055 2.18 15.8382H-2.18C-2.18 18.1243 -0.323432 19.9678 1.95468 19.9678V15.6078ZM2.18 15.8382C2.18 15.9709 2.07371 16.0687 1.95468 16.0687V11.7087C-0.323432 11.7087 -2.18 13.5521 -2.18 15.8382H2.18ZM1.95468 16.0687C1.83564 16.0687 1.72935 15.9709 1.72935 15.8382H6.08935C6.08935 13.5521 4.23279 11.7087 1.95468 11.7087V16.0687Z" fill="#DCE7FF" mask="url(#path-2-inside-1_1207_105457)"/>
<ellipse cx="19.8521" cy="8.18831" rx="1.95468" ry="1.94954" fill="#E9EAFF"/>
<path d="M21.5908 25.2428C21.5908 26.3597 20.6809 27.2721 19.5499 27.2721C18.4189 27.2721 17.5089 26.3597 17.5089 25.2428C17.5089 24.1259 18.4189 23.2135 19.5499 23.2135C20.6809 23.2135 21.5908 24.1259 21.5908 25.2428Z" fill="white" stroke="#B8CBF4" stroke-width="2.18"/>
<mask id="path-6-inside-2_1207_105457" fill="white">
<ellipse cx="155.73" cy="26.0384" rx="2.13986" ry="1.94954"/>
</mask>
<ellipse cx="155.73" cy="26.0384" rx="2.13986" ry="1.94954" fill="white"/>
<path d="M155.69 26.0384C155.69 25.9798 155.703 25.9238 155.724 25.8793C155.744 25.8371 155.765 25.8144 155.775 25.8055C155.793 25.7891 155.783 25.8079 155.73 25.8079V30.1679C157.92 30.1679 160.05 28.5057 160.05 26.0384H155.69ZM155.73 25.8079C155.677 25.8079 155.667 25.7891 155.685 25.8055C155.695 25.8144 155.716 25.8371 155.735 25.8793C155.756 25.9238 155.77 25.9798 155.77 26.0384H151.41C151.41 28.5057 153.539 30.1679 155.73 30.1679V25.8079ZM155.77 26.0384C155.77 26.097 155.756 26.153 155.735 26.1975C155.716 26.2397 155.695 26.2624 155.685 26.2714C155.667 26.2878 155.677 26.2689 155.73 26.2689V21.9089C153.539 21.9089 151.41 23.5711 151.41 26.0384H155.77ZM155.73 26.2689C155.783 26.2689 155.793 26.2878 155.775 26.2714C155.765 26.2624 155.744 26.2397 155.724 26.1975C155.703 26.153 155.69 26.097 155.69 26.0384H160.05C160.05 23.5711 157.92 21.9089 155.73 21.9089V26.2689Z" fill="#DCE7FF" mask="url(#path-6-inside-2_1207_105457)"/>
<ellipse cx="141.91" cy="8.18831" rx="1.95468" ry="1.94954" fill="#E9EAFF"/>
<path d="M145.127 30.608C145.127 31.7249 144.217 32.6373 143.086 32.6373C141.955 32.6373 141.045 31.7249 141.045 30.608C141.045 29.4911 141.955 28.5788 143.086 28.5788C144.217 28.5788 145.127 29.4911 145.127 30.608Z" fill="white" stroke="#B8CBF4" stroke-width="2.18"/>
<ellipse cx="155.869" cy="11.9078" rx="3.13093" ry="3.11927" fill="#B8CBF4"/>
<rect x="39.0938" y="53.8071" width="88.3514" height="24.9541" rx="5" fill="url(#paint0_linear_1207_105457)" fill-opacity="0.89"/>
<path d="M75.8418 53.8071H89.1336L107.508 78.7613H93.043L75.8418 53.8071Z" fill="url(#paint1_linear_1207_105457)" fill-opacity="0.46"/>
<path d="M93.4336 53.8071H105.944L124.708 78.7613H111.156L93.4336 53.8071Z" fill="url(#paint2_linear_1207_105457)" fill-opacity="0.46"/>
<rect x="39.6388" y="6.78377" width="87.2614" height="26.2036" rx="4.905" fill="url(#paint3_linear_1207_105457)" stroke="url(#paint4_linear_1207_105457)" stroke-width="1.09"/>
<path d="M40.5989 26.7777C42.6222 23.6386 45.9088 21.5324 49.6063 21.0056L65.677 18.7158L85.4152 17.5909C90.4809 17.3022 95.492 16.3927 100.336 14.8829L111.807 11.3076L121.972 7.40849C123.527 6.74366 125.333 7.36098 126.156 8.8387L126.226 8.9626C126.512 9.47762 126.663 10.0574 126.663 10.6469V12.4773V19.4957V29.0332C126.663 29.6819 126.493 30.3193 126.171 30.8822C125.508 32.039 124.277 32.7525 122.944 32.7525H115.717H105.552H84.4419H43.5854C43.1995 32.7525 42.8161 32.6905 42.45 32.5687L42.2356 32.4975C40.6574 31.9728 39.7061 30.3667 40.0043 28.7305L40.1561 27.8978C40.2288 27.4991 40.3793 27.1185 40.5989 26.7777Z" fill="url(#paint5_linear_1207_105457)" fill-opacity="0.17"/>
<rect x="53.167" y="11.6973" width="68.0228" height="3.11927" rx="1.55963" fill="white" fill-opacity="0.67"/>
<rect x="53.167" y="18.7158" width="39.0935" height="3.11927" rx="1.55963" fill="white" fill-opacity="0.67"/>
<rect x="53.167" y="25.7344" width="30.493" height="3.11927" rx="1.55963" fill="white" fill-opacity="0.67"/>
<rect x="42.2217" y="10.1377" width="7.81871" height="7.01835" rx="3" fill="white" fill-opacity="0.67"/>
<rect x="12.2735" y="40.3155" width="87.2614" height="26.2036" rx="4.905" fill="url(#paint6_linear_1207_105457)" stroke="url(#paint7_linear_1207_105457)" stroke-width="1.09"/>
<path d="M13.2336 60.3095C15.257 57.1703 18.5436 55.0642 22.241 54.5374L38.3118 52.2476L58.05 51.1226C63.1157 50.8339 68.1268 49.9245 72.9709 48.4147L84.4422 44.8393L94.6065 40.9402C96.1619 40.2754 97.9681 40.8927 98.7913 42.3704L98.8603 42.4943C99.1471 43.0094 99.2977 43.5891 99.2977 44.1786V46.009V53.0274V62.5649C99.2977 63.2136 99.1281 63.851 98.8056 64.4139C98.1428 65.5707 96.9116 66.2843 95.5784 66.2843H88.3515H78.1872H57.0767H16.2201C15.8343 66.2843 15.4509 66.2222 15.0848 66.1005L14.8704 66.0292C13.2922 65.5045 12.3408 63.8984 12.6391 62.2623L12.7909 61.4296C12.8636 61.0308 13.014 60.6502 13.2336 60.3095Z" fill="url(#paint8_linear_1207_105457)" fill-opacity="0.17"/>
<rect x="25.8018" y="45.229" width="68.0228" height="3.11927" rx="1.55963" fill="white" fill-opacity="0.67"/>
<rect x="25.8018" y="52.2476" width="39.0935" height="3.11927" rx="1.55963" fill="white" fill-opacity="0.67"/>
<rect x="25.8018" y="59.2661" width="30.493" height="3.11927" rx="1.55963" fill="white" fill-opacity="0.67"/>
<rect x="14.8564" y="43.6694" width="7.81871" height="7.01835" rx="3" fill="white" fill-opacity="0.67"/>
<defs>
<linearGradient id="paint0_linear_1207_105457" x1="49.5408" y1="53.433" x2="127.223" y2="74.8446" gradientUnits="userSpaceOnUse">
<stop stop-color="#D0DBF3" stop-opacity="0.52"/>
<stop offset="1" stop-color="#D0DBF3" stop-opacity="0.4"/>
</linearGradient>
<linearGradient id="paint1_linear_1207_105457" x1="105.944" y1="81.8805" x2="84.1232" y2="53.7515" gradientUnits="userSpaceOnUse">
<stop stop-color="white"/>
<stop offset="1" stop-color="white" stop-opacity="0.68"/>
</linearGradient>
<linearGradient id="paint2_linear_1207_105457" x1="116.89" y1="81.8805" x2="95.0691" y2="53.7515" gradientUnits="userSpaceOnUse">
<stop stop-color="white"/>
<stop offset="1" stop-color="white" stop-opacity="0.68"/>
</linearGradient>
<linearGradient id="paint3_linear_1207_105457" x1="83.2694" y1="6.23876" x2="107.82" y2="31.2043" gradientUnits="userSpaceOnUse">
<stop stop-color="#B5C6ED"/>
<stop offset="1" stop-color="#D0DBF3"/>
</linearGradient>
<linearGradient id="paint4_linear_1207_105457" x1="47.3034" y1="-7.40801" x2="115.607" y2="37.9868" gradientUnits="userSpaceOnUse">
<stop stop-color="#9FB6E8"/>
<stop offset="1" stop-color="#C7D7FD"/>
</linearGradient>
<linearGradient id="paint5_linear_1207_105457" x1="42.2209" y1="31.1929" x2="126.636" y2="9.64174" gradientUnits="userSpaceOnUse">
<stop stop-color="#6A8FE1"/>
<stop offset="1" stop-color="#6A8FE1" stop-opacity="0.6"/>
</linearGradient>
<linearGradient id="paint6_linear_1207_105457" x1="55.9042" y1="39.7705" x2="80.4545" y2="64.736" gradientUnits="userSpaceOnUse">
<stop stop-color="#B5C6ED"/>
<stop offset="1" stop-color="#D0DBF3"/>
</linearGradient>
<linearGradient id="paint7_linear_1207_105457" x1="19.9382" y1="26.1237" x2="88.2418" y2="71.5186" gradientUnits="userSpaceOnUse">
<stop stop-color="#9FB6E8"/>
<stop offset="1" stop-color="#C7D7FD"/>
</linearGradient>
<linearGradient id="paint8_linear_1207_105457" x1="14.8557" y1="64.7246" x2="99.2706" y2="43.1735" gradientUnits="userSpaceOnUse">
<stop stop-color="#6A8FE1"/>
<stop offset="1" stop-color="#6A8FE1" stop-opacity="0.6"/>
</linearGradient>
</defs>
</svg>
