<svg xmlns="http://www.w3.org/2000/svg" width="24" height="24" viewBox="0 0 24 24" fill="none">
  <rect x="8.84999" y="6.05" width="11.1" height="2.9" rx="0.45" fill="url(#paint0_linear_7488_2842)" stroke="url(#paint1_linear_7488_2842)" stroke-width="0.1"/>
  <rect x="8.84999" y="10.55" width="11.1" height="2.9" rx="0.45" fill="url(#paint2_linear_7488_2842)" stroke="url(#paint3_linear_7488_2842)" stroke-width="0.1"/>
  <rect x="8.84999" y="15.05" width="11.1" height="2.9" rx="0.45" fill="url(#paint4_linear_7488_2842)" stroke="url(#paint5_linear_7488_2842)" stroke-width="0.1"/>
  <rect x="-0.05" y="0.05" width="3.1" height="2.9" rx="0.45" transform="matrix(-1 0 0 1 7.10001 6)" fill="url(#paint6_linear_7488_2842)" stroke="url(#paint7_linear_7488_2842)" stroke-width="0.1"/>
  <rect x="-0.05" y="0.05" width="3.1" height="2.9" rx="0.45" transform="matrix(-1 0 0 1 7.10001 10.5)" fill="url(#paint8_linear_7488_2842)" stroke="url(#paint9_linear_7488_2842)" stroke-width="0.1"/>
  <rect x="-0.05" y="0.05" width="3.1" height="2.9" rx="0.45" transform="matrix(-1 0 0 1 7.10001 15)" fill="url(#paint10_linear_7488_2842)" stroke="url(#paint11_linear_7488_2842)" stroke-width="0.1"/>
  <defs>
    <linearGradient id="paint0_linear_7488_2842" x1="14.75" y1="5" x2="13.8935" y2="9.94638" gradientUnits="userSpaceOnUse">
      <stop stop-color="#EB9090"/>
      <stop offset="1" stop-color="#F7CDCD"/>
    </linearGradient>
    <linearGradient id="paint1_linear_7488_2842" x1="14.4" y1="6" x2="14.4" y2="9" gradientUnits="userSpaceOnUse">
      <stop stop-color="#FFC7B8"/>
      <stop offset="1" stop-color="#EDA89C"/>
    </linearGradient>
    <linearGradient id="paint2_linear_7488_2842" x1="14.75" y1="9.5" x2="13.8935" y2="14.4464" gradientUnits="userSpaceOnUse">
      <stop stop-color="#EB9090"/>
      <stop offset="1" stop-color="#F7CDCD"/>
    </linearGradient>
    <linearGradient id="paint3_linear_7488_2842" x1="14.4" y1="10.5" x2="14.4" y2="13.5" gradientUnits="userSpaceOnUse">
      <stop stop-color="#FFC7B8"/>
      <stop offset="1" stop-color="#EDA89C"/>
    </linearGradient>
    <linearGradient id="paint4_linear_7488_2842" x1="14.75" y1="14" x2="13.8935" y2="18.9464" gradientUnits="userSpaceOnUse">
      <stop stop-color="#EB9090"/>
      <stop offset="1" stop-color="#F7CDCD"/>
    </linearGradient>
    <linearGradient id="paint5_linear_7488_2842" x1="14.4" y1="15" x2="14.4" y2="18" gradientUnits="userSpaceOnUse">
      <stop stop-color="#FFC7B8"/>
      <stop offset="1" stop-color="#EDA89C"/>
    </linearGradient>
    <linearGradient id="paint6_linear_7488_2842" x1="1.7" y1="-1" x2="-0.558227" y2="2.72607" gradientUnits="userSpaceOnUse">
      <stop stop-color="#EB9090"/>
      <stop offset="1" stop-color="#F7CDCD"/>
    </linearGradient>
    <linearGradient id="paint7_linear_7488_2842" x1="1.6" y1="0" x2="1.6" y2="3" gradientUnits="userSpaceOnUse">
      <stop stop-color="#FFC7B8"/>
      <stop offset="1" stop-color="#EDA89C"/>
    </linearGradient>
    <linearGradient id="paint8_linear_7488_2842" x1="1.7" y1="-1" x2="-0.558227" y2="2.72607" gradientUnits="userSpaceOnUse">
      <stop stop-color="#EB9090"/>
      <stop offset="1" stop-color="#F7CDCD"/>
    </linearGradient>
    <linearGradient id="paint9_linear_7488_2842" x1="1.6" y1="0" x2="1.6" y2="3" gradientUnits="userSpaceOnUse">
      <stop stop-color="#FFC7B8"/>
      <stop offset="1" stop-color="#EDA89C"/>
    </linearGradient>
    <linearGradient id="paint10_linear_7488_2842" x1="1.7" y1="-1" x2="-0.558227" y2="2.72607" gradientUnits="userSpaceOnUse">
      <stop stop-color="#EB9090"/>
      <stop offset="1" stop-color="#F7CDCD"/>
    </linearGradient>
    <linearGradient id="paint11_linear_7488_2842" x1="1.6" y1="0" x2="1.6" y2="3" gradientUnits="userSpaceOnUse">
      <stop stop-color="#FFC7B8"/>
      <stop offset="1" stop-color="#EDA89C"/>
    </linearGradient>
  </defs>
</svg>