<svg xmlns="http://www.w3.org/2000/svg" width="24" height="24" viewBox="0 0 24 24" fill="none">
  <path d="M19.1111 17.2778V7.55554L12 10.6666V20L19.1111 17.2778Z" fill="url(#paint0_linear_7488_1445)"/>
  <path d="M4.80003 17.2368V7.36841L12 10.5263V20L4.80003 17.2368Z" fill="url(#paint1_linear_7488_1445)"/>
  <path d="M12 4L4.80003 7.36842L12 10.3158V8.21052V4Z" fill="#FDCF8E"/>
  <path d="M12 4L19.2 7.36842L12 10.3158V8.21052V4Z" fill="url(#paint2_linear_7488_1445)"/>
  <path d="M4 9.89472L4.8 7.36841L12 10.3158V13.2631L4 9.89472Z" fill="#F9C275"/>
  <path d="M20 9.89472L19.2 7.36841L12 10.3158V13.2631L20 9.89472Z" fill="#FFD294"/>
  <defs>
    <linearGradient id="paint0_linear_7488_1445" x1="15.5556" y1="7.55554" x2="15.5556" y2="20" gradientUnits="userSpaceOnUse">
      <stop stop-color="#EA9622"/>
      <stop offset="1" stop-color="#FBC77F"/>
    </linearGradient>
    <linearGradient id="paint1_linear_7488_1445" x1="8.40003" y1="7.36841" x2="8.40003" y2="20" gradientUnits="userSpaceOnUse">
      <stop stop-color="#EA9622"/>
      <stop offset="1" stop-color="#FBC77F"/>
    </linearGradient>
    <linearGradient id="paint2_linear_7488_1445" x1="15.6" y1="4" x2="18.2222" y2="15.1111" gradientUnits="userSpaceOnUse">
      <stop stop-color="#EDB86E"/>
      <stop offset="1" stop-color="#FFD69B"/>
    </linearGradient>
  </defs>
</svg>