<svg width="14" height="14" viewBox="0 0 14 14" fill="none" xmlns="http://www.w3.org/2000/svg">
<g id="Files">
<path id="Rectangle 1509" d="M1.75 1.375C1.75 1.09886 1.97386 0.875 2.25 0.875H9.41789C9.5505 0.875 9.67768 0.927678 9.77145 1.02145L12.1036 3.35355C12.1973 3.44732 12.25 3.5745 12.25 3.70711V12.625C12.25 12.9011 12.0261 13.125 11.75 13.125H2.25C1.97386 13.125 1.75 12.9011 1.75 12.625V1.375Z" fill="#EBEBEB"/>
<path id="Vector 70" d="M9.625 3.5V0.875L12.25 3.5H9.625Z" fill="#D9D9D9"/>
<rect id="Rectangle 1510" x="2.625" y="7.875" width="8.75" height="4.375" rx="0.5" fill="#F44545"/>
<g id="PDF">
<path d="M3.82914 10.3931V11.375H3.5V8.75H4.22139C4.37601 8.75 4.51017 8.76954 4.62386 8.80862C4.73869 8.84648 4.83363 8.90082 4.90867 8.97165C4.98371 9.04248 5.03942 9.12797 5.0758 9.22811C5.11332 9.32824 5.13208 9.43999 5.13208 9.56333C5.13208 9.68545 5.11218 9.79719 5.07239 9.89855C5.03259 9.99991 4.97404 10.0872 4.89673 10.1605C4.82055 10.2338 4.72562 10.2912 4.61193 10.3327C4.49823 10.373 4.36805 10.3931 4.22139 10.3931H3.82914ZM3.82914 10.111H4.22139C4.31575 10.111 4.39875 10.0976 4.47038 10.0707C4.54314 10.0439 4.60397 10.0066 4.65286 9.959C4.70174 9.91015 4.73869 9.85215 4.76371 9.78498C4.78872 9.71781 4.80123 9.64393 4.80123 9.56333C4.80123 9.39602 4.75291 9.26535 4.65627 9.17132C4.56076 9.07729 4.4158 9.03027 4.22139 9.03027H3.82914V10.111Z" fill="white"/>
<path d="M7.66914 10.0634C7.66914 10.26 7.64014 10.4389 7.58216 10.6001C7.52418 10.7613 7.44232 10.8993 7.33658 11.0141C7.23085 11.1289 7.10408 11.2181 6.95628 11.2816C6.80847 11.3439 6.64475 11.375 6.46512 11.375H5.55102V8.75H6.46512C6.64475 8.75 6.80847 8.78175 6.95628 8.84525C7.10408 8.90754 7.23085 8.99669 7.33658 9.1127C7.44232 9.22749 7.52418 9.36549 7.58216 9.52669C7.64014 9.68789 7.66914 9.8668 7.66914 10.0634ZM7.32976 10.0634C7.32976 9.90222 7.3093 9.75811 7.26837 9.63111C7.22744 9.5041 7.16945 9.39663 7.09441 9.30871C7.01938 9.22078 6.92842 9.15361 6.82155 9.10721C6.71468 9.0608 6.59587 9.0376 6.46512 9.0376H5.88357V11.0874H6.46512C6.59587 11.0874 6.71468 11.0642 6.82155 11.0178C6.92842 10.9714 7.01938 10.9048 7.09441 10.8181C7.16945 10.7302 7.22744 10.6227 7.26837 10.4957C7.3093 10.3687 7.32976 10.2246 7.32976 10.0634Z" fill="white"/>
<path d="M9.625 8.75V9.03943H8.45168V9.95717H9.45446V10.2466H8.45168V11.375H8.11912V8.75H9.625Z" fill="white"/>
</g>
</g>
</svg>
