<svg xmlns="http://www.w3.org/2000/svg" width="24" height="24" viewBox="0 0 24 24" fill="none">
  <path d="M20.95 19C20.95 19.5247 20.5247 19.95 20 19.95L4.00003 19.95C3.47535 19.95 3.05002 19.5247 3.05003 19L3.05032 9.27059L3.05006 5.00006C3.05003 4.47537 3.47537 4.05 4.00006 4.05L20 4.05C20.5247 4.05 20.95 4.47533 20.95 5L20.95 19Z" fill="url(#paint0_linear_7488_2883)" stroke="url(#paint1_linear_7488_2883)" stroke-width="0.1"/>
  <circle cx="12" cy="12" r="4.75" stroke="white" stroke-width="0.5"/>
  <g filter="url(#filter0_d_7488_2883)">
    <rect x="13.9053" y="10.1485" width="3.33284" height="0.95212" transform="rotate(90 13.9053 10.1485)" fill="white"/>
    <path d="M13.4292 15.3332L11.78 13.1113L15.0783 13.1113L13.4292 15.3332Z" fill="white"/>
  </g>
  <g filter="url(#filter1_d_7488_2883)">
    <rect x="10.0947" y="13.8513" width="3.33284" height="0.95212" transform="rotate(-90 10.0947 13.8513)" fill="white"/>
    <path d="M10.5708 8.66666L12.2199 10.8885L8.92165 10.8885L10.5708 8.66666Z" fill="white"/>
  </g>
  <defs>
    <filter id="filter0_d_7488_2883" x="10.9801" y="10.1485" width="4.89816" height="6.7846" filterUnits="userSpaceOnUse" color-interpolation-filters="sRGB">
      <feFlood flood-opacity="0" result="BackgroundImageFix"/>
      <feColorMatrix in="SourceAlpha" type="matrix" values="0 0 0 0 0 0 0 0 0 0 0 0 0 0 0 0 0 0 127 0" result="hardAlpha"/>
      <feOffset dy="0.799955"/>
      <feGaussianBlur stdDeviation="0.399977"/>
      <feComposite in2="hardAlpha" operator="out"/>
      <feColorMatrix type="matrix" values="0 0 0 0 0 0 0 0 0 0 0 0 0 0 0 0 0 0 0.13 0"/>
      <feBlend mode="normal" in2="BackgroundImageFix" result="effect1_dropShadow_7488_2883"/>
      <feBlend mode="normal" in="SourceGraphic" in2="effect1_dropShadow_7488_2883" result="shape"/>
    </filter>
    <filter id="filter1_d_7488_2883" x="8.12171" y="8.66666" width="4.89813" height="6.78454" filterUnits="userSpaceOnUse" color-interpolation-filters="sRGB">
      <feFlood flood-opacity="0" result="BackgroundImageFix"/>
      <feColorMatrix in="SourceAlpha" type="matrix" values="0 0 0 0 0 0 0 0 0 0 0 0 0 0 0 0 0 0 127 0" result="hardAlpha"/>
      <feOffset dy="0.799955"/>
      <feGaussianBlur stdDeviation="0.399977"/>
      <feComposite in2="hardAlpha" operator="out"/>
      <feColorMatrix type="matrix" values="0 0 0 0 0 0 0 0 0 0 0 0 0 0 0 0 0 0 0.13 0"/>
      <feBlend mode="normal" in2="BackgroundImageFix" result="effect1_dropShadow_7488_2883"/>
      <feBlend mode="normal" in="SourceGraphic" in2="effect1_dropShadow_7488_2883" result="shape"/>
    </filter>
    <linearGradient id="paint0_linear_7488_2883" x1="27.75" y1="25" x2="14.5019" y2="-5.76668" gradientUnits="userSpaceOnUse">
      <stop stop-color="#6479A0"/>
      <stop offset="0.961728" stop-color="#5FBCFF"/>
    </linearGradient>
    <linearGradient id="paint1_linear_7488_2883" x1="12" y1="20" x2="10.6702" y2="3.04547" gradientUnits="userSpaceOnUse">
      <stop stop-color="#BDDDFF"/>
      <stop offset="1" stop-color="#4E9EE4"/>
    </linearGradient>
  </defs>
</svg>