<svg width="84" height="24" viewBox="0 0 84 24" fill="none" xmlns="http://www.w3.org/2000/svg">
<path fill-rule="evenodd" clip-rule="evenodd" d="M0.0767389 7.23171C0.171552 8.14107 0.266465 9.05034 0.361478 9.95951L12.5456 15.5968L7.97326 19.7666L7.93176 24L15.0098 17.3647L15.4621 12.9448L15.4634 12.9364L3.62675 7.54555C5.23325 6.19399 6.70904 4.85248 8.0611 3.54381L8.12578 0C5.41701 2.16512 2.70843 4.33024 0 6.49538L7.53323e-06 6.49546L0 6.49546L0.00043663 6.49965C0.0261425 6.75096 0.051532 6.99381 0.0767389 7.23171ZM8.39159 4.67415L5.54419 7.28281L15.5826 11.8759C15.7222 10.6434 15.8613 9.41086 16 8.17833L8.39159 4.67415ZM10.6308 15.8001L0.522888 11.1311C0.704028 12.7324 0.885491 14.3336 1.06728 15.9348L7.34125 18.8243L10.6308 15.8001Z" fill="#3874FF"/>
<path d="M27.8043 18.0785C30.1744 18.0937 31.3067 16.6483 31.3067 15.3702C31.3067 13.6052 29.7064 13.1335 28.3478 12.8596C27.1551 12.6009 26.4909 12.464 26.4909 11.9467C26.4909 11.4902 26.8834 11.1555 27.6986 11.1555C28.4534 11.1555 28.9667 11.475 29.2989 12.0228L31.2009 11.2468C30.4461 10.1513 29.4196 9.497 27.6986 9.497C25.6908 9.48178 24.3623 10.6838 24.3623 12.0684C24.3623 13.803 25.887 14.229 27.2608 14.5181C28.3025 14.7311 29.1781 14.868 29.1781 15.4614C29.1781 15.9483 28.7252 16.3592 27.8798 16.3592C27.0193 16.3592 26.3701 15.9788 26.0078 15.2484L24 16.0396C24.6491 17.3482 25.8719 18.0785 27.8043 18.0785Z" fill="#050E25"/>
<path d="M36.8051 18.0785C38.6016 18.0785 39.7488 17.3329 40.564 16.1766L38.8582 15.1723C38.4505 15.8418 37.8013 16.2679 36.8352 16.2679C35.6275 16.2679 34.767 15.5984 34.4954 14.5333H40.9717V13.7421C40.9717 11.3076 39.2053 9.5274 36.7598 9.5274C34.3292 9.5274 32.4875 11.4293 32.4875 13.8182C32.4875 16.207 34.1783 18.0785 36.8051 18.0785ZM36.7598 11.3076C37.8466 11.3076 38.6318 11.8706 38.9034 12.89H34.5558C34.8878 11.9315 35.7029 11.3076 36.7598 11.3076Z" fill="#050E25"/>
<path d="M42.4778 17.9111H44.5762V13.3769C44.5762 12.0988 45.331 11.3685 46.3124 11.3685C47.4143 11.3685 47.9729 12.0988 47.9729 13.2704V17.9111H50.1014V12.9509C50.1014 10.8055 48.8788 9.5274 46.9464 9.5274C45.9349 9.5274 45.0895 9.98386 44.5611 10.7294V9.69477H42.4778V17.9111Z" fill="#050E25"/>
<path d="M51.1394 11.5511H52.649V15.005C52.649 17.2416 53.6455 18.0633 55.3513 18.0633C56.1061 18.0633 56.7703 17.835 57.2987 17.4394L56.3475 15.7962C56.1061 16.0092 55.8797 16.1005 55.5927 16.1005C55.0645 16.1005 54.7021 15.7962 54.7021 14.9289V11.5511H56.8458V9.69477H54.7021V6.69733L52.649 7.91457V9.69477H51.1394V11.5511Z" fill="#050E25"/>
<path d="M58.3774 17.9111H60.506V9.56384L58.3774 10.9374V17.9111Z" fill="#050E25"/>
<path d="M62.3171 17.9111H64.4155V13.3769C64.4155 12.0988 65.1703 11.3685 66.1517 11.3685C67.2536 11.3685 67.8122 12.0988 67.8122 13.2704V17.9111H69.9408V12.9509C69.9408 10.8055 68.7179 9.5274 66.7858 9.5274C65.7742 9.5274 64.9289 9.98386 64.4004 10.7294V9.69477H62.3171V17.9111Z" fill="#050E25"/>
<path d="M75.7579 18.0785C77.5545 18.0785 78.7019 17.3329 79.517 16.1766L77.811 15.1723C77.4036 15.8418 76.7544 16.2679 75.7881 16.2679C74.5806 16.2679 73.7199 15.5984 73.4483 14.5333H79.9245V13.7421C79.9245 11.3076 78.1584 9.5274 75.7127 9.5274C73.2823 9.5274 71.4404 11.4293 71.4404 13.8182C71.4404 16.207 73.1311 18.0785 75.7579 18.0785ZM75.7127 11.3076C76.7997 11.3076 77.5847 11.8706 77.8563 12.89H73.5086C73.8407 11.9315 74.656 11.3076 75.7127 11.3076Z" fill="#050E25"/>
<path d="M81.4454 17.9112H83.5287V5.92137H81.4454V17.9112Z" fill="#050E25"/>
<path fill-rule="evenodd" clip-rule="evenodd" d="M60.488 6.70451V8.9239L58.3709 10.2678V8.07843L60.488 6.70451Z" fill="#050E25"/>
</svg>