<svg width="16" height="24" viewBox="0 0 16 24" fill="none" xmlns="http://www.w3.org/2000/svg">
<path fill-rule="evenodd" clip-rule="evenodd" d="M0.076737 7.23169C0.171551 8.14106 0.266464 9.05033 0.361478 9.95951L12.5456 15.5968L7.97326 19.7666L7.93176 24L15.0098 17.3647L15.4621 12.9449L15.4634 12.9364L3.62675 7.54555C5.23325 6.19399 6.70904 4.85248 8.0611 3.54381L8.12578 0C5.41701 2.16512 2.70843 4.33024 0 6.49538L7.53323e-06 6.49546L0 6.49546L0.00043664 6.49965C0.0261419 6.75095 0.0515307 6.99379 0.076737 7.23169ZM8.39159 4.67415L5.54419 7.28281L15.5826 11.8759C15.7222 10.6434 15.8613 9.41086 16 8.17833L8.39159 4.67415ZM10.6308 15.8001L0.522888 11.1311C0.704028 12.7324 0.885491 14.3336 1.06728 15.9348L7.34125 18.8243L10.6308 15.8001Z" fill="#3874FF"/>
</svg>