<svg xmlns="http://www.w3.org/2000/svg" width="24" height="24" viewBox="0 0 24 24" fill="none">
  <rect x="6.05" y="5.05" width="2.9" height="13.9" rx="1.45" fill="url(#paint0_linear_7488_2922)" stroke="url(#paint1_linear_7488_2922)" stroke-width="0.1"/>
  <rect x="10.55" y="5.05" width="2.9" height="13.9" rx="1.45" fill="url(#paint2_linear_7488_2922)" stroke="url(#paint3_linear_7488_2922)" stroke-width="0.1"/>
  <rect x="15.05" y="5.05" width="2.9" height="13.9" rx="1.45" fill="url(#paint4_linear_7488_2922)" stroke="url(#paint5_linear_7488_2922)" stroke-width="0.1"/>
  <g filter="url(#filter0_d_7488_2922)">
    <ellipse cx="7.5" cy="10.6" rx="1.5" ry="1.4" fill="white"/>
    <path d="M8.95 10.6C8.95 11.3424 8.30412 11.95 7.5 11.95C6.69588 11.95 6.05 11.3424 6.05 10.6C6.05 9.85762 6.69588 9.25001 7.5 9.25001C8.30412 9.25001 8.95 9.85762 8.95 10.6Z" stroke="url(#paint6_linear_7488_2922)" stroke-width="0.1"/>
  </g>
  <g filter="url(#filter1_d_7488_2922)">
    <ellipse cx="12" cy="13.4" rx="1.5" ry="1.4" fill="white"/>
    <path d="M13.45 13.4C13.45 14.1424 12.8041 14.75 12 14.75C11.1959 14.75 10.55 14.1424 10.55 13.4C10.55 12.6576 11.1959 12.05 12 12.05C12.8041 12.05 13.45 12.6576 13.45 13.4Z" stroke="url(#paint7_linear_7488_2922)" stroke-width="0.1"/>
  </g>
  <g filter="url(#filter2_d_7488_2922)">
    <ellipse cx="16.5" cy="10.6" rx="1.5" ry="1.4" fill="white"/>
    <path d="M17.95 10.6C17.95 11.3424 17.3041 11.95 16.5 11.95C15.6959 11.95 15.05 11.3424 15.05 10.6C15.05 9.85762 15.6959 9.25001 16.5 9.25001C17.3041 9.25001 17.95 9.85762 17.95 10.6Z" stroke="url(#paint8_linear_7488_2922)" stroke-width="0.1"/>
  </g>
  <defs>
    <filter id="filter0_d_7488_2922" x="5" y="8.20001" width="5" height="4.79999" filterUnits="userSpaceOnUse" color-interpolation-filters="sRGB">
      <feFlood flood-opacity="0" result="BackgroundImageFix"/>
      <feColorMatrix in="SourceAlpha" type="matrix" values="0 0 0 0 0 0 0 0 0 0 0 0 0 0 0 0 0 0 127 0" result="hardAlpha"/>
      <feOffset/>
      <feGaussianBlur stdDeviation="0.5"/>
      <feComposite in2="hardAlpha" operator="out"/>
      <feColorMatrix type="matrix" values="0 0 0 0 0 0 0 0 0 0 0 0 0 0 0 0 0 0 0.25 0"/>
      <feBlend mode="normal" in2="BackgroundImageFix" result="effect1_dropShadow_7488_2922"/>
      <feBlend mode="normal" in="SourceGraphic" in2="effect1_dropShadow_7488_2922" result="shape"/>
    </filter>
    <filter id="filter1_d_7488_2922" x="9.5" y="11" width="5" height="4.79999" filterUnits="userSpaceOnUse" color-interpolation-filters="sRGB">
      <feFlood flood-opacity="0" result="BackgroundImageFix"/>
      <feColorMatrix in="SourceAlpha" type="matrix" values="0 0 0 0 0 0 0 0 0 0 0 0 0 0 0 0 0 0 127 0" result="hardAlpha"/>
      <feOffset/>
      <feGaussianBlur stdDeviation="0.5"/>
      <feComposite in2="hardAlpha" operator="out"/>
      <feColorMatrix type="matrix" values="0 0 0 0 0 0 0 0 0 0 0 0 0 0 0 0 0 0 0.25 0"/>
      <feBlend mode="normal" in2="BackgroundImageFix" result="effect1_dropShadow_7488_2922"/>
      <feBlend mode="normal" in="SourceGraphic" in2="effect1_dropShadow_7488_2922" result="shape"/>
    </filter>
    <filter id="filter2_d_7488_2922" x="14" y="8.20001" width="5" height="4.79999" filterUnits="userSpaceOnUse" color-interpolation-filters="sRGB">
      <feFlood flood-opacity="0" result="BackgroundImageFix"/>
      <feColorMatrix in="SourceAlpha" type="matrix" values="0 0 0 0 0 0 0 0 0 0 0 0 0 0 0 0 0 0 127 0" result="hardAlpha"/>
      <feOffset/>
      <feGaussianBlur stdDeviation="0.5"/>
      <feComposite in2="hardAlpha" operator="out"/>
      <feColorMatrix type="matrix" values="0 0 0 0 0 0 0 0 0 0 0 0 0 0 0 0 0 0 0.25 0"/>
      <feBlend mode="normal" in2="BackgroundImageFix" result="effect1_dropShadow_7488_2922"/>
      <feBlend mode="normal" in="SourceGraphic" in2="effect1_dropShadow_7488_2922" result="shape"/>
    </filter>
    <linearGradient id="paint0_linear_7488_2922" x1="7.5" y1="5" x2="7.5" y2="19" gradientUnits="userSpaceOnUse">
      <stop stop-color="#FFCF8E"/>
      <stop offset="1" stop-color="#D6AA50"/>
    </linearGradient>
    <linearGradient id="paint1_linear_7488_2922" x1="7.5" y1="5" x2="7.5" y2="19" gradientUnits="userSpaceOnUse">
      <stop stop-color="#AD7B36"/>
      <stop offset="0.0001" stop-color="#D99A44"/>
      <stop offset="1" stop-color="#FFEBC9"/>
    </linearGradient>
    <linearGradient id="paint2_linear_7488_2922" x1="12" y1="5" x2="12" y2="19" gradientUnits="userSpaceOnUse">
      <stop stop-color="#FFCF8E"/>
      <stop offset="1" stop-color="#D6AA50"/>
    </linearGradient>
    <linearGradient id="paint3_linear_7488_2922" x1="12" y1="5" x2="12" y2="19" gradientUnits="userSpaceOnUse">
      <stop stop-color="#AD7B36"/>
      <stop offset="0.0001" stop-color="#D99A44"/>
      <stop offset="1" stop-color="#FFEBC9"/>
    </linearGradient>
    <linearGradient id="paint4_linear_7488_2922" x1="16.5" y1="5" x2="16.5" y2="19" gradientUnits="userSpaceOnUse">
      <stop stop-color="#FFCF8E"/>
      <stop offset="1" stop-color="#D6AA50"/>
    </linearGradient>
    <linearGradient id="paint5_linear_7488_2922" x1="16.5" y1="5" x2="16.5" y2="19" gradientUnits="userSpaceOnUse">
      <stop stop-color="#AD7B36"/>
      <stop offset="0.0001" stop-color="#D99A44"/>
      <stop offset="1" stop-color="#FFEBC9"/>
    </linearGradient>
    <linearGradient id="paint6_linear_7488_2922" x1="7.5" y1="9.20001" x2="7.5" y2="12" gradientUnits="userSpaceOnUse">
      <stop stop-color="#EA9622"/>
      <stop offset="1" stop-color="#FFDEB0"/>
    </linearGradient>
    <linearGradient id="paint7_linear_7488_2922" x1="12" y1="12" x2="12" y2="14.8" gradientUnits="userSpaceOnUse">
      <stop stop-color="#EA9622"/>
      <stop offset="1" stop-color="#FFDEB0"/>
    </linearGradient>
    <linearGradient id="paint8_linear_7488_2922" x1="16.5" y1="9.20001" x2="16.5" y2="12" gradientUnits="userSpaceOnUse">
      <stop stop-color="#EA9622"/>
      <stop offset="1" stop-color="#FFDEB0"/>
    </linearGradient>
  </defs>
</svg>