<svg xmlns="http://www.w3.org/2000/svg" width="24" height="24" viewBox="0 0 24 24" fill="none">
  <path d="M14.4887 8.47527C14.4067 8.45469 14.3251 8.43395 14.2436 8.41326C14.0143 8.35501 13.7865 8.29713 13.5571 8.24409L13.557 8.24408C13.5019 8.23127 13.4571 8.21085 13.4209 8.17643C13.3852 8.14246 13.3621 8.09869 13.3433 8.04682L13.3433 8.04678C13.2528 7.79561 13.1495 7.54768 13.0369 7.30467C13.0131 7.25471 12.997 7.20619 12.9973 7.15494C12.9976 7.10273 13.0148 7.05337 13.0474 7.0014L13.0475 7.00131C13.1749 6.79959 13.2964 6.59464 13.4125 6.39867C13.4506 6.33443 13.4881 6.27116 13.525 6.20928L12.3683 5.04984C12.3103 5.0845 12.2517 5.11956 12.1927 5.15489C11.9801 5.28211 11.7617 5.41285 11.5408 5.54088L11.5391 5.54183L11.5391 5.5418C11.476 5.57528 11.4021 5.58258 11.3336 5.56213L11.33 5.56104L11.33 5.5609C11.0417 5.45033 10.7587 5.33128 10.4768 5.21124L10.4759 5.21086L10.4759 5.21085C10.4537 5.20086 10.4279 5.18602 10.4058 5.16793C10.3853 5.15116 10.3603 5.12547 10.3521 5.09212M14.4887 8.47527L10.4006 5.08013M14.4887 8.47527V10.0996M14.4887 8.47527L14.5387 10.1386M10.3521 5.09212L10.4006 5.08013M10.3521 5.09212C10.3521 5.09212 10.3521 5.09212 10.3521 5.09212L10.4006 5.08013M10.3521 5.09212C10.2924 4.85084 10.2355 4.6064 10.1786 4.36218C10.1543 4.25799 10.13 4.15384 10.1056 4.05M10.4006 5.08013C10.3411 4.83916 10.2842 4.59528 10.2274 4.35124C10.2001 4.23409 10.1728 4.11691 10.1451 4M10.1056 4.05H10.1451V4M10.1056 4.05H8.4651M10.1056 4.05C10.1025 4.03716 10.0995 4.02433 10.0965 4.0115L10.1451 4M10.1451 4L8.4651 4.05M8.4651 4.05C8.46812 4.03713 8.47113 4.02426 8.47414 4.01139L8.42546 4V4.05H8.4651ZM8.4651 4.05C8.44584 4.13201 8.42641 4.21392 8.40698 4.29576C8.34867 4.54147 8.29051 4.78654 8.23805 5.03185L8.23803 5.03193C8.22559 5.08963 8.2022 5.13228 8.16618 5.16487C8.13182 5.19596 8.08923 5.2147 8.04597 5.23113L8.04575 5.23122C7.79 5.32703 7.53654 5.43125 7.28873 5.54558M8.4651 4.05L8.18915 5.02139C8.16787 5.12013 8.11337 5.15205 8.02821 5.18439C7.77147 5.28057 7.51686 5.38527 7.26779 5.50017M7.28873 5.54558C7.28875 5.54557 7.28877 5.54556 7.28879 5.54555L7.26779 5.50017M7.28873 5.54558C7.24291 5.56678 7.1984 5.58164 7.15159 5.58177C7.10363 5.58191 7.05876 5.56665 7.0119 5.53753L7.01167 5.53739C6.7912 5.39867 6.56807 5.2656 6.35469 5.13835C6.30323 5.10766 6.25234 5.07731 6.20219 5.0473M7.28873 5.54558L7.26779 5.50017M7.26779 5.50017C7.18136 5.54018 7.12047 5.54614 7.0383 5.49507M7.0383 5.49507C6.81727 5.356 6.59344 5.22252 6.37997 5.09521C6.31711 5.05772 6.25515 5.02077 6.19442 4.98437M7.0383 5.49507L5.17513 8.04515C5.27646 7.77874 5.38503 7.51516 5.50084 7.25442M7.0383 5.49507L6.20219 5.0473M6.19442 4.98437L4.98097 6.19728M6.19442 4.98437L6.16871 5.02726C6.17983 5.03392 6.19099 5.0406 6.20219 5.0473M6.19442 4.98437L6.22977 5.01973L6.20219 5.0473M4.98097 6.19728C5.0217 6.2654 5.06276 6.33442 5.10419 6.40407C5.23124 6.61765 5.36173 6.83702 5.49658 7.05397C5.54342 7.12675 5.53448 7.17909 5.50084 7.25442M4.98097 6.19728L5.01632 6.23264L5.04388 6.20509C5.03721 6.19391 5.03055 6.18276 5.02389 6.17162L4.98097 6.19728ZM5.50084 7.25442L5.54654 7.27472C5.43114 7.53453 5.32295 7.79718 5.22197 8.06264M5.50084 7.25442L5.5465 7.27481C5.56401 7.23558 5.5781 7.19613 5.57888 7.15416C5.57969 7.11059 5.56617 7.06981 5.53885 7.02725L5.22197 8.06264M5.22197 8.06264C5.20565 8.10713 5.18519 8.14664 5.15302 8.17789C5.12018 8.20979 5.0791 8.2293 5.02813 8.24076L5.02793 8.2408C4.71622 8.30952 4.40697 8.38687 4.09415 8.46511C4.07944 8.46879 4.06473 8.47247 4.05 8.47615V10.1001C4.12178 10.1175 4.19338 10.135 4.26486 10.1525C4.51497 10.2136 4.76356 10.2744 5.01326 10.3307C5.06912 10.3432 5.11415 10.3642 5.1502 10.3994C5.18565 10.4339 5.20846 10.4783 5.2269 10.5299L5.17981 10.5467M5.22197 8.06264L10.1375 14.5387C10.1605 14.4467 10.1838 14.3549 10.2071 14.2632C10.2673 14.0263 10.3272 13.7902 10.3819 13.553C10.4023 13.4632 10.4479 13.427 10.53 13.3964M5.17981 10.5467L5.22682 10.5297C5.31782 10.781 5.42114 11.0286 5.53386 11.2717L5.48849 11.2928M5.17981 10.5467C5.27135 10.7995 5.37524 11.0485 5.48849 11.2928M5.17981 10.5467C5.14532 10.4501 5.10147 10.4016 5.00226 10.3795C4.75209 10.3231 4.50287 10.2622 4.25264 10.201C4.16857 10.1805 4.08438 10.1599 4 10.1394L5.4804 11.5481C5.53916 11.4549 5.53277 11.3868 5.48849 11.2928M5.48849 11.2928L5.53373 11.2715C5.55721 11.3213 5.57336 11.3698 5.57309 11.421C5.57281 11.4732 5.5556 11.5226 5.5227 11.5748L5.52266 11.5748C5.39394 11.7783 5.2715 11.9856 5.15436 12.1839C5.11756 12.2462 5.08128 12.3076 5.0455 12.3677L6.20018 13.5288C6.25396 13.4966 6.30813 13.4644 6.36256 13.4319C6.57732 13.304 6.79621 13.1736 7.01223 13.0386C7.05931 13.0092 7.10461 12.9941 7.15271 12.9944C7.19965 12.9947 7.24411 13.0098 7.28932 13.031C7.53232 13.1442 7.77952 13.2496 8.03061 13.3396L8.01444 13.3846L8.03061 13.3396C8.08278 13.3583 8.13001 13.3799 8.16739 13.415C8.20601 13.4512 8.23011 13.4979 8.24389 13.5594C8.29603 13.7901 8.35395 14.0189 8.41218 14.2489C8.43236 14.3286 8.45258 14.4085 8.47261 14.4887H10.0985C10.1185 14.409 10.1387 14.3296 10.1588 14.2503C10.2189 14.0137 10.2786 13.7784 10.3331 13.5418C10.3449 13.4901 10.3651 13.4494 10.3975 13.4171C10.4292 13.3856 10.4689 13.3658 10.5126 13.3496L10.53 13.3964M10.53 13.3964L10.5124 13.3496C10.7687 13.2528 11.0234 13.1519 11.2713 13.0382L11.2922 13.0836M10.53 13.3964C10.7868 13.2994 11.0427 13.1981 11.2922 13.0836M11.2922 13.0836L11.271 13.0383C11.321 13.015 11.3695 12.9985 11.4206 12.9984C11.4728 12.9983 11.5222 13.0151 11.5744 13.0482M11.2922 13.0836C11.3871 13.0393 11.4548 13.0317 11.5476 13.0904M11.5744 13.0482L11.5476 13.0904M11.5744 13.0482C11.5743 13.0482 11.5743 13.0481 11.5743 13.0481L11.5476 13.0904M11.5744 13.0482C11.7746 13.1745 11.978 13.2948 12.173 13.4101C12.239 13.4491 12.304 13.4876 12.3676 13.5255M11.5476 13.0904C11.7486 13.2172 11.953 13.3381 12.1482 13.4536C12.2256 13.4993 12.3016 13.5442 12.3753 13.5883M12.3676 13.5255L12.34 13.5529L12.3753 13.5883M12.3676 13.5255C12.3788 13.5322 12.3899 13.5388 12.401 13.5454L12.3753 13.5883M12.3676 13.5255L13.5279 12.3702M12.3753 13.5883L13.5909 12.378M13.5909 12.378L13.5481 12.4038C13.5413 12.3926 13.5346 12.3814 13.5279 12.3702M13.5909 12.378C13.5425 12.2976 13.4937 12.2161 13.4446 12.1338C13.3263 11.9356 13.2055 11.7333 13.08 11.5336C13.028 11.4507 13.0366 11.3894 13.0757 11.3043M13.5909 12.378L13.5556 12.3426L13.5279 12.3702M13.5279 12.3702C13.4859 12.3004 13.4438 12.2299 13.4014 12.1589C13.2831 11.9609 13.1628 11.7594 13.0376 11.5602L13.0376 11.5602C13.0078 11.5125 12.993 11.4671 12.9937 11.419C12.9944 11.3723 13.0097 11.3282 13.0303 11.2834M13.0303 11.2834L13.0757 11.3043M13.0303 11.2834C13.0303 11.2834 13.0303 11.2834 13.0303 11.2833L13.0757 11.3043M13.0303 11.2834C13.1441 11.0347 13.2505 10.784 13.3425 10.5286M13.0757 11.3043C13.1903 11.054 13.2975 10.8012 13.3904 10.5433M13.3904 10.5433L13.3419 10.531C13.3421 10.5302 13.3423 10.5294 13.3425 10.5286M13.3904 10.5433C13.401 10.5013 13.4237 10.4634 13.4558 10.4342C13.4878 10.405 13.5277 10.3858 13.5705 10.379M13.3904 10.5433L13.3433 10.5264C13.3431 10.5271 13.3428 10.5278 13.3425 10.5286M13.3425 10.5286C13.3558 10.4781 13.3834 10.4324 13.4221 10.3972C13.4608 10.3618 13.509 10.3385 13.5608 10.3299M13.5705 10.379L13.5592 10.3303C13.5597 10.3302 13.5603 10.3301 13.5608 10.3299M13.5705 10.379C13.8082 10.3239 14.045 10.2638 14.2824 10.2034C14.3677 10.1818 14.4531 10.1601 14.5387 10.1386M13.5705 10.379L13.5627 10.3296C13.5621 10.3297 13.5614 10.3298 13.5608 10.3299M13.5608 10.3299C13.7974 10.2751 14.033 10.2152 14.2697 10.1551C14.3425 10.1366 14.4155 10.118 14.4887 10.0996M14.5387 10.1386H14.4887V10.0996M14.5387 10.1386L14.5265 10.0901C14.5139 10.0933 14.5013 10.0964 14.4887 10.0996M6.84439 9.286V9.2861C6.84396 9.76874 6.98678 10.2407 7.25478 10.6421C7.52277 11.0436 7.9039 11.3566 8.34991 11.5414C8.79593 11.7263 9.28678 11.7748 9.76036 11.6807C10.2339 11.5866 10.6689 11.3542 11.0103 11.0129C11.3517 10.6716 11.5842 10.2367 11.6782 9.76334C11.7722 9.28995 11.7237 8.7993 11.5386 8.35351C11.3536 7.90772 11.0404 7.52682 10.6387 7.25902C10.237 6.99121 9.76489 6.84854 9.28205 6.84906L9.28196 6.84906C8.636 6.85101 8.01707 7.10839 7.56034 7.56499C7.10362 8.0216 6.84622 8.64032 6.84439 9.286Z" fill="url(#paint0_linear_7488_2908)" stroke="url(#paint1_linear_7488_2908)" stroke-width="0.1"/>
  <path d="M19.8299 16.4822L19.8299 16.4822C19.8557 16.3895 19.8882 16.2981 19.9201 16.2085C19.9298 16.1813 19.9395 16.1542 19.9489 16.1273L19.9496 16.0724C19.8783 16.0315 19.8067 15.9906 19.735 15.9497C19.5184 15.8262 19.301 15.7021 19.0881 15.5732L19.0839 15.5706L19.0841 15.5704C19.0245 15.5259 18.9817 15.4626 18.9627 15.3907C18.9245 15.2605 18.8893 15.1297 18.8542 14.9996C18.8498 14.9833 18.8454 14.967 18.841 14.9507C18.8015 14.8041 18.7617 14.6584 18.7173 14.5138C18.7173 14.5137 18.7172 14.5135 18.7172 14.5134L18.765 14.4987C18.7384 14.4176 18.7338 14.361 18.78 14.2865L19.8299 16.4822ZM19.8299 16.4822C19.7334 16.8317 19.638 17.1817 19.5505 17.5339L19.5505 17.534M19.8299 16.4822L19.5505 17.534M19.5505 17.534C19.5404 17.5751 19.5293 17.5894 19.5206 17.5957C19.5116 17.6023 19.4945 17.608 19.4535 17.6062L19.4533 17.6062M19.5505 17.534L19.4533 17.6062M19.4533 17.6062C19.1522 17.5946 18.8506 17.5862 18.5488 17.5883L18.5488 17.5881M19.4533 17.6062L18.5488 17.5881M18.5488 17.5881L18.5445 17.5885M18.5488 17.5881L18.5445 17.5885M18.5445 17.5885C18.4661 17.5957 18.3926 17.6301 18.3369 17.6858C18.1162 17.8974 17.9004 18.1135 17.6894 18.3342C17.6341 18.3891 17.599 18.4611 17.5897 18.5384L17.5895 18.5384M18.5445 17.5885L17.5895 18.5384M17.5895 18.5384L17.5894 18.5431M17.5895 18.5384L17.5894 18.5431M17.5894 18.5431C17.5832 18.7955 17.5839 19.0483 17.5847 19.308C17.5849 19.383 17.5851 19.4586 17.5852 19.5349L16.075 19.9418C15.9151 19.6695 15.7556 19.3975 15.6012 19.1213C15.5731 19.0706 15.5403 19.0328 15.498 19.0048C15.4564 18.9773 15.4089 18.9615 15.355 18.9498L15.3445 18.9987M17.5894 18.5431L12.4227 15.9441M12.4227 15.9441L12.4226 15.9442C12.4923 15.9919 12.5433 16.0622 12.5671 16.1432M12.4227 15.9441L12.4198 15.9424M12.4227 15.9441L12.4198 15.9424M12.5671 16.1432C12.6035 16.2655 12.6358 16.3893 12.6679 16.5121C12.673 16.5315 12.6781 16.5509 12.6832 16.5703C12.7205 16.7125 12.7584 16.8533 12.803 16.9914C12.8194 17.042 12.831 17.0902 12.8294 17.1392C12.8278 17.1896 12.8124 17.2371 12.7813 17.287L12.7388 17.2606M12.5671 16.1432C12.5672 16.1432 12.5672 16.1432 12.5672 16.1432L12.5192 16.1573C12.5553 16.2789 12.5874 16.4018 12.6195 16.5246C12.6619 16.6864 12.7042 16.8481 12.7555 17.0068C12.7871 17.1046 12.7933 17.1732 12.7388 17.2606M12.5671 16.1432L12.7388 17.2606M12.7388 17.2606L12.7813 17.2869C12.6491 17.5 12.5207 17.7153 12.3979 17.9213C12.359 17.9865 12.3207 18.0507 12.283 18.1137L13.4077 19.2485C13.4756 19.2078 13.5439 19.1669 13.6126 19.1259C13.8207 19.0015 14.0317 18.8754 14.2416 18.7462C14.2831 18.7181 14.3311 18.7009 14.381 18.6964C14.4306 18.6919 14.4804 18.7 14.526 18.7199C14.7981 18.8113 15.0749 18.8881 15.3552 18.9498L15.3445 18.9987M15.3445 18.9987C15.4464 19.0207 15.5075 19.0552 15.5574 19.1455L14.2688 18.7882C14.3035 18.7644 14.3437 18.75 14.3855 18.7462C14.4274 18.7424 14.4696 18.7494 14.5079 18.7665C14.7824 18.8589 15.0617 18.9364 15.3445 18.9987ZM12.4198 15.9424C12.2072 15.817 11.9909 15.6978 11.7703 15.5761C11.6961 15.5353 11.6215 15.4941 11.5464 15.4524L11.5748 15.3464C11.7016 14.8732 11.8278 14.4021 11.9511 13.9409C12.0396 13.9408 12.1271 13.9405 12.2139 13.9402C12.4685 13.9394 12.7168 13.9386 12.9662 13.9434L12.9662 13.9434M12.4198 15.9424L12.9662 13.9434M12.9662 13.9434H12.9672M12.9662 13.9434H12.9672M12.9672 13.9434C13.0203 13.9434 13.0646 13.9339 13.1053 13.9132C13.1451 13.893 13.1783 13.8635 13.2113 13.8289L13.2113 13.8289M12.9672 13.9434L13.2113 13.8289M13.2113 13.8289L13.2118 13.8285M13.2113 13.8289L13.2118 13.8285M13.2118 13.8285C13.4115 13.6142 13.6181 13.4063 13.8316 13.2084M13.2118 13.8285L13.8316 13.2084M13.8316 13.2084C13.8686 13.1792 13.898 13.1416 13.9175 13.0987C13.9371 13.0554 13.9461 13.008 13.9435 12.9605M13.8316 13.2084L15.9348 12.4115C15.8187 12.1949 15.6986 11.9809 15.5769 11.764C15.5364 11.6919 15.4957 11.6194 15.455 11.5464L13.9435 11.9532M13.9435 12.9605C13.9435 12.9609 13.9435 12.9612 13.9436 12.9615L13.8936 12.9623L13.9435 12.9595C13.9435 12.9599 13.9435 12.9602 13.9435 12.9605ZM13.9435 12.9605C13.9397 12.735 13.941 12.5099 13.9422 12.2778C13.9428 12.1713 13.9434 12.0633 13.9435 11.9532M13.9435 11.9532L13.9066 11.9631L13.8936 11.9148H13.9436C13.9436 11.9276 13.9436 11.9404 13.9435 11.9532ZM15.7738 14.3114L15.7737 14.3114C15.4869 14.3093 15.2058 14.3922 14.9661 14.5498C14.7264 14.7073 14.5388 14.9324 14.4269 15.1966C14.315 15.4607 14.284 15.7521 14.3376 16.0339C14.3913 16.3157 14.5272 16.5753 14.7284 16.7799C14.9295 16.9844 15.1867 17.1248 15.4675 17.1832C15.7484 17.2416 16.0402 17.2155 16.3062 17.1081C16.5722 17.0007 16.8004 16.8169 16.9619 16.5798C17.1235 16.3428 17.2112 16.0632 17.2139 15.7763L17.2139 15.7762C17.2164 15.3912 17.0663 15.0208 16.7964 14.7463C16.5265 14.4718 16.1588 14.3154 15.7738 14.3114ZM19.4513 17.6562C19.1506 17.6446 18.8498 17.6362 18.5491 17.6383L19.8781 16.4955C19.7816 16.845 19.6864 17.1944 19.599 17.546C19.577 17.6358 19.5395 17.6599 19.4513 17.6562ZM15.9788 12.3878C16.025 12.4744 16.0816 12.5064 16.1781 12.5276C16.4606 12.5891 16.7397 12.6653 17.0142 12.756L15.9788 12.3878Z" fill="url(#paint2_linear_7488_2908)" stroke="url(#paint3_linear_7488_2908)" stroke-width="0.1"/>
  <path d="M10.8407 9.27485C10.8396 9.58543 10.7464 9.88872 10.5731 10.1464C10.3997 10.4041 10.1539 10.6046 9.86658 10.7227C9.5793 10.8407 9.26349 10.871 8.95902 10.8096C8.65456 10.7483 8.3751 10.5981 8.15594 10.378C7.93678 10.158 7.78776 9.87789 7.72768 9.57318C7.66761 9.26846 7.69919 8.95278 7.81842 8.666C7.93766 8.37922 8.13921 8.1342 8.39761 7.9619C8.65602 7.7896 8.95969 7.69774 9.27027 7.69792L9.2703 7.64792L9.2702 7.69792C9.47686 7.69835 9.68142 7.73948 9.87219 7.81896C10.063 7.89845 10.2362 8.01473 10.382 8.16117C10.5279 8.3076 10.6434 8.48133 10.7221 8.67243C10.8008 8.86353 10.8411 9.06826 10.8407 9.27492L10.8907 9.27503L10.8407 9.27485Z" fill="url(#paint4_linear_7488_2908)" stroke="url(#paint5_linear_7488_2908)" stroke-width="0.1"/>
  <path d="M15.7567 16.7073C15.5658 16.7098 15.3785 16.6555 15.2186 16.5514C15.0586 16.4473 14.9331 16.298 14.8581 16.1224C14.7831 15.9468 14.762 15.7529 14.7974 15.5653C14.8328 15.3777 14.9232 15.2048 15.0571 15.0687C15.1909 14.9325 15.3622 14.8392 15.5492 14.8006C15.7362 14.762 15.9304 14.7798 16.1073 14.8518C16.2841 14.9238 16.4355 15.0467 16.5424 15.2049C16.6492 15.3631 16.7066 15.5494 16.7073 15.7403C16.706 15.9935 16.6059 16.2363 16.4284 16.4168C16.2508 16.5974 16.0098 16.7016 15.7567 16.7073Z" fill="url(#paint6_linear_7488_2908)" stroke="url(#paint7_linear_7488_2908)" stroke-width="0.1"/>
  <defs>
    <linearGradient id="paint0_linear_7488_2908" x1="9.26933" y1="4" x2="8.7424" y2="15.0656" gradientUnits="userSpaceOnUse">
      <stop stop-color="#D8608F"/>
      <stop offset="1" stop-color="#656BF4"/>
    </linearGradient>
    <linearGradient id="paint1_linear_7488_2908" x1="9.26933" y1="4" x2="9.26933" y2="14.5387" gradientUnits="userSpaceOnUse">
      <stop stop-color="#FAB8F1"/>
      <stop offset="1" stop-color="#574AB5"/>
    </linearGradient>
    <linearGradient id="paint2_linear_7488_2908" x1="15.744" y1="11.488" x2="15.3184" y2="20.4256" gradientUnits="userSpaceOnUse">
      <stop stop-color="#D8608F"/>
      <stop offset="1" stop-color="#656BF4"/>
    </linearGradient>
    <linearGradient id="paint3_linear_7488_2908" x1="15.744" y1="11.488" x2="15.744" y2="20" gradientUnits="userSpaceOnUse">
      <stop stop-color="#F5B5D8"/>
      <stop offset="1" stop-color="#6850C7"/>
    </linearGradient>
    <linearGradient id="paint4_linear_7488_2908" x1="9.26934" y1="7.64792" x2="9.10721" y2="11.0527" gradientUnits="userSpaceOnUse">
      <stop stop-color="#D8608F"/>
      <stop offset="1" stop-color="#656BF4"/>
    </linearGradient>
    <linearGradient id="paint5_linear_7488_2908" x1="9.26934" y1="7.64792" x2="9.26934" y2="10.8906" gradientUnits="userSpaceOnUse">
      <stop stop-color="#FAB8F1"/>
      <stop offset="1" stop-color="#574AB5"/>
    </linearGradient>
    <linearGradient id="paint6_linear_7488_2908" x1="15.744" y1="14.7307" x2="15.6427" y2="16.8587" gradientUnits="userSpaceOnUse">
      <stop stop-color="#D8608F"/>
      <stop offset="1" stop-color="#656BF4"/>
    </linearGradient>
    <linearGradient id="paint7_linear_7488_2908" x1="15.744" y1="14.7307" x2="15.744" y2="16.7573" gradientUnits="userSpaceOnUse">
      <stop stop-color="#FAB8F1"/>
      <stop offset="1" stop-color="#574AB5"/>
    </linearGradient>
  </defs>
</svg>