<svg xmlns="http://www.w3.org/2000/svg" width="24" height="24" viewBox="0 0 24 24" fill="none">
  <path d="M5.05 4C5.05 3.47533 5.47533 3.05 6 3.05H14.8H18C18.5247 3.05 18.95 3.47533 18.95 4V7.45813V16.481L14.9775 20.95H6C5.47533 20.95 5.05 20.5247 5.05 20V4Z" fill="url(#paint0_linear_7488_2896)" stroke="url(#paint1_linear_7488_2896)" stroke-width="0.1"/>
  <rect x="6.05" y="4.55" width="5.9" height="5.9" rx="0.95" fill="white" fill-opacity="0.28" stroke="url(#paint2_linear_7488_2896)" stroke-width="0.1"/>
  <path d="M7.67678 8.07322C7.57915 7.97559 7.42085 7.97559 7.32322 8.07322C7.22559 8.17085 7.22559 8.32915 7.32322 8.42678L7.67678 8.07322ZM8.25 9L8.07322 9.17678L8.27705 9.3806L8.45 9.15L8.25 9ZM7.32322 8.42678L8.07322 9.17678L8.42678 8.82322L7.67678 8.07322L7.32322 8.42678ZM8.45 9.15L10.7 6.15L10.3 5.85L8.05 8.85L8.45 9.15Z" fill="#F4FEFE"/>
  <g filter="url(#filter0_d_7488_2896)">
    <rect x="6" y="12" width="12" height="0.75" rx="0.375" fill="white"/>
  </g>
  <g filter="url(#filter1_d_7488_2896)">
    <rect x="6" y="13.5" width="12" height="0.75" rx="0.375" fill="white"/>
  </g>
  <g filter="url(#filter2_d_7488_2896)">
    <rect x="6" y="15" width="12" height="0.75" rx="0.375" fill="white"/>
  </g>
  <g filter="url(#filter3_d_7488_2896)">
    <rect x="6" y="16.5" width="6" height="0.75" rx="0.375" fill="white"/>
  </g>
  <path d="M15.5 20.5L19 16.5H15V21L15.5 20.5Z" fill="url(#paint3_linear_7488_2896)"/>
  <defs>
    <filter id="filter0_d_7488_2896" x="5" y="11" width="14" height="2.75" filterUnits="userSpaceOnUse" color-interpolation-filters="sRGB">
      <feFlood flood-opacity="0" result="BackgroundImageFix"/>
      <feColorMatrix in="SourceAlpha" type="matrix" values="0 0 0 0 0 0 0 0 0 0 0 0 0 0 0 0 0 0 127 0" result="hardAlpha"/>
      <feOffset/>
      <feGaussianBlur stdDeviation="0.5"/>
      <feComposite in2="hardAlpha" operator="out"/>
      <feColorMatrix type="matrix" values="0 0 0 0 0 0 0 0 0 0 0 0 0 0 0 0 0 0 0.25 0"/>
      <feBlend mode="normal" in2="BackgroundImageFix" result="effect1_dropShadow_7488_2896"/>
      <feBlend mode="normal" in="SourceGraphic" in2="effect1_dropShadow_7488_2896" result="shape"/>
    </filter>
    <filter id="filter1_d_7488_2896" x="5" y="12.5" width="14" height="2.75" filterUnits="userSpaceOnUse" color-interpolation-filters="sRGB">
      <feFlood flood-opacity="0" result="BackgroundImageFix"/>
      <feColorMatrix in="SourceAlpha" type="matrix" values="0 0 0 0 0 0 0 0 0 0 0 0 0 0 0 0 0 0 127 0" result="hardAlpha"/>
      <feOffset/>
      <feGaussianBlur stdDeviation="0.5"/>
      <feComposite in2="hardAlpha" operator="out"/>
      <feColorMatrix type="matrix" values="0 0 0 0 0 0 0 0 0 0 0 0 0 0 0 0 0 0 0.25 0"/>
      <feBlend mode="normal" in2="BackgroundImageFix" result="effect1_dropShadow_7488_2896"/>
      <feBlend mode="normal" in="SourceGraphic" in2="effect1_dropShadow_7488_2896" result="shape"/>
    </filter>
    <filter id="filter2_d_7488_2896" x="5" y="14" width="14" height="2.75" filterUnits="userSpaceOnUse" color-interpolation-filters="sRGB">
      <feFlood flood-opacity="0" result="BackgroundImageFix"/>
      <feColorMatrix in="SourceAlpha" type="matrix" values="0 0 0 0 0 0 0 0 0 0 0 0 0 0 0 0 0 0 127 0" result="hardAlpha"/>
      <feOffset/>
      <feGaussianBlur stdDeviation="0.5"/>
      <feComposite in2="hardAlpha" operator="out"/>
      <feColorMatrix type="matrix" values="0 0 0 0 0 0 0 0 0 0 0 0 0 0 0 0 0 0 0.25 0"/>
      <feBlend mode="normal" in2="BackgroundImageFix" result="effect1_dropShadow_7488_2896"/>
      <feBlend mode="normal" in="SourceGraphic" in2="effect1_dropShadow_7488_2896" result="shape"/>
    </filter>
    <filter id="filter3_d_7488_2896" x="5" y="15.5" width="8" height="2.75" filterUnits="userSpaceOnUse" color-interpolation-filters="sRGB">
      <feFlood flood-opacity="0" result="BackgroundImageFix"/>
      <feColorMatrix in="SourceAlpha" type="matrix" values="0 0 0 0 0 0 0 0 0 0 0 0 0 0 0 0 0 0 127 0" result="hardAlpha"/>
      <feOffset/>
      <feGaussianBlur stdDeviation="0.5"/>
      <feComposite in2="hardAlpha" operator="out"/>
      <feColorMatrix type="matrix" values="0 0 0 0 0 0 0 0 0 0 0 0 0 0 0 0 0 0 0.25 0"/>
      <feBlend mode="normal" in2="BackgroundImageFix" result="effect1_dropShadow_7488_2896"/>
      <feBlend mode="normal" in="SourceGraphic" in2="effect1_dropShadow_7488_2896" result="shape"/>
    </filter>
    <linearGradient id="paint0_linear_7488_2896" x1="12" y1="3" x2="12" y2="20.8326" gradientUnits="userSpaceOnUse">
      <stop stop-color="#5AAEDE"/>
      <stop offset="1" stop-color="#6675F5"/>
    </linearGradient>
    <linearGradient id="paint1_linear_7488_2896" x1="5.7" y1="3" x2="19.3078" y2="20.8054" gradientUnits="userSpaceOnUse">
      <stop stop-color="#87CBFF"/>
      <stop offset="1" stop-color="#2C5CA3"/>
    </linearGradient>
    <linearGradient id="paint2_linear_7488_2896" x1="9" y1="4.5" x2="9" y2="10.5" gradientUnits="userSpaceOnUse">
      <stop stop-color="#81C9FA"/>
      <stop offset="1" stop-color="#458FD5"/>
    </linearGradient>
    <linearGradient id="paint3_linear_7488_2896" x1="18" y1="19.5" x2="15.75" y2="17.25" gradientUnits="userSpaceOnUse">
      <stop stop-color="#618BEC"/>
      <stop offset="1" stop-color="#99D1FF"/>
    </linearGradient>
  </defs>
</svg>