<svg width="21" height="14" viewBox="0 0 21 14" fill="none" xmlns="http://www.w3.org/2000/svg">
<g id="Icon">
<rect id="Rectangle 1531" x="0.383252" y="10.05" width="19.9" height="3.9" rx="1.95" fill="url(#paint0_linear_2139_13507)" stroke="url(#paint1_linear_2139_13507)" stroke-width="0.1"/>
<circle id="Ellipse 48" cx="2.33325" cy="12" r="1" fill="white"/>
<circle id="Ellipse 49" cx="18.3333" cy="12" r="1" fill="white"/>
<rect id="Rectangle 1532" x="1.38325" y="5.05" width="3.9" height="4.9" rx="0.45" fill="url(#paint2_linear_2139_13507)" stroke="url(#paint3_linear_2139_13507)" stroke-width="0.1"/>
<rect id="Rectangle 1541" x="1.38325" y="0.05" width="3.9" height="4.9" rx="0.45" fill="url(#paint4_linear_2139_13507)" stroke="url(#paint5_linear_2139_13507)" stroke-width="0.1"/>
<rect id="Rectangle 1535" x="2.33325" y="6" width="1" height="1" fill="white" fill-opacity="0.51"/>
<rect id="Rectangle 1542" x="2.33325" y="1" width="1" height="1" fill="white" fill-opacity="0.51"/>
<rect id="Rectangle 1536" x="3.33325" y="8" width="1" height="1" fill="white" fill-opacity="0.51"/>
<rect id="Rectangle 1543" x="3.33325" y="3" width="1" height="1" fill="white" fill-opacity="0.51"/>
<rect id="Rectangle 1533" x="5.38325" y="5.05" width="3.9" height="4.9" rx="0.45" fill="url(#paint6_linear_2139_13507)" stroke="url(#paint7_linear_2139_13507)" stroke-width="0.1"/>
<rect id="Rectangle 1544" x="5.38325" y="0.05" width="3.9" height="4.9" rx="0.45" fill="url(#paint8_linear_2139_13507)" stroke="url(#paint9_linear_2139_13507)" stroke-width="0.1"/>
<rect id="Rectangle 1537" x="6.33325" y="6" width="1" height="1" fill="white" fill-opacity="0.51"/>
<rect id="Rectangle 1545" x="6.33325" y="1" width="1" height="1" fill="white" fill-opacity="0.51"/>
<rect id="Rectangle 1538" x="7.33325" y="8" width="1" height="1" fill="white" fill-opacity="0.51"/>
<rect id="Rectangle 1546" x="7.33325" y="3" width="1" height="1" fill="white" fill-opacity="0.51"/>
<rect id="Rectangle 1534" x="9.38325" y="5.05" width="3.9" height="4.9" rx="0.45" fill="url(#paint10_linear_2139_13507)" stroke="url(#paint11_linear_2139_13507)" stroke-width="0.1"/>
<rect id="Rectangle 1547" x="9.38325" y="0.05" width="3.9" height="4.9" rx="0.45" fill="url(#paint12_linear_2139_13507)" stroke="url(#paint13_linear_2139_13507)" stroke-width="0.1"/>
<rect id="Rectangle 1539" x="10.3333" y="6" width="1" height="1" fill="white" fill-opacity="0.51"/>
<rect id="Rectangle 1548" x="10.3333" y="1" width="1" height="1" fill="white" fill-opacity="0.51"/>
<rect id="Rectangle 1540" x="11.3333" y="8" width="1" height="1" fill="white" fill-opacity="0.51"/>
<rect id="Rectangle 1549" x="11.3333" y="3" width="1" height="1" fill="white" fill-opacity="0.51"/>
<g id="Union">
<mask id="path-22-inside-1_2139_13507" fill="white">
<path fill-rule="evenodd" clip-rule="evenodd" d="M15.3331 9L17.3331 9L17.3331 4L18.0652 4L16.3331 1L14.6011 4L15.3331 4L15.3331 9Z"/>
</mask>
<path fill-rule="evenodd" clip-rule="evenodd" d="M15.3331 9L17.3331 9L17.3331 4L18.0652 4L16.3331 1L14.6011 4L15.3331 4L15.3331 9Z" fill="url(#paint14_linear_2139_13507)"/>
<path d="M17.3331 9L17.3331 9.2L17.5331 9.2L17.5331 9L17.3331 9ZM15.3331 9L15.1331 9L15.1331 9.2L15.3331 9.2L15.3331 9ZM17.3331 4L17.3331 3.8L17.1331 3.8L17.1331 4L17.3331 4ZM18.0652 4L18.0652 4.2L18.4116 4.2L18.2384 3.9L18.0652 4ZM16.3331 1L16.5063 0.9L16.3331 0.600001L16.1599 0.9L16.3331 1ZM14.6011 4L14.4279 3.9L14.2547 4.2L14.6011 4.2L14.6011 4ZM15.3331 4L15.5331 4L15.5331 3.8L15.3331 3.8L15.3331 4ZM17.3331 8.8L15.3331 8.8L15.3331 9.2L17.3331 9.2L17.3331 8.8ZM17.1331 4L17.1331 9L17.5331 9L17.5331 4L17.1331 4ZM18.0652 3.8L17.3331 3.8L17.3331 4.2L18.0652 4.2L18.0652 3.8ZM16.1599 1.1L17.892 4.1L18.2384 3.9L16.5063 0.9L16.1599 1.1ZM14.7743 4.1L16.5063 1.1L16.1599 0.9L14.4279 3.9L14.7743 4.1ZM15.3331 3.8L14.6011 3.8L14.6011 4.2L15.3331 4.2L15.3331 3.8ZM15.5331 9L15.5331 4L15.1331 4L15.1331 9L15.5331 9Z" fill="url(#paint15_linear_2139_13507)" mask="url(#path-22-inside-1_2139_13507)"/>
</g>
</g>
<defs>
<linearGradient id="paint0_linear_2139_13507" x1="18.6666" y1="12" x2="5.32619" y2="11.5368" gradientUnits="userSpaceOnUse">
<stop offset="0.107304" stop-color="#DFDFDF"/>
<stop offset="0.5615" stop-color="#DEDEDE"/>
<stop offset="1" stop-color="#DEDEDE"/>
</linearGradient>
<linearGradient id="paint1_linear_2139_13507" x1="19.2221" y1="12" x2="0.328263" y2="11.5369" gradientUnits="userSpaceOnUse">
<stop stop-color="#DFDFDF"/>
<stop offset="1" stop-color="#B3B3B3"/>
</linearGradient>
<linearGradient id="paint2_linear_2139_13507" x1="3.33325" y1="5" x2="3.33325" y2="10" gradientUnits="userSpaceOnUse">
<stop stop-color="#FBD19C"/>
<stop offset="1" stop-color="#F8CB81"/>
</linearGradient>
<linearGradient id="paint3_linear_2139_13507" x1="3.33325" y1="5" x2="3.33325" y2="10" gradientUnits="userSpaceOnUse">
<stop stop-color="#FFCD89"/>
<stop offset="1" stop-opacity="0"/>
</linearGradient>
<linearGradient id="paint4_linear_2139_13507" x1="3.33325" y1="0" x2="3.33325" y2="5" gradientUnits="userSpaceOnUse">
<stop stop-color="#FBD19C"/>
<stop offset="1" stop-color="#F8CB81"/>
</linearGradient>
<linearGradient id="paint5_linear_2139_13507" x1="3.33325" y1="0" x2="3.33325" y2="5" gradientUnits="userSpaceOnUse">
<stop stop-color="#FFCD89"/>
<stop offset="1" stop-opacity="0"/>
</linearGradient>
<linearGradient id="paint6_linear_2139_13507" x1="7.33325" y1="5" x2="7.33325" y2="10" gradientUnits="userSpaceOnUse">
<stop stop-color="#FBD19C"/>
<stop offset="1" stop-color="#F8CB81"/>
</linearGradient>
<linearGradient id="paint7_linear_2139_13507" x1="7.33325" y1="5" x2="7.33325" y2="10" gradientUnits="userSpaceOnUse">
<stop stop-color="#FFCD89"/>
<stop offset="1" stop-opacity="0"/>
</linearGradient>
<linearGradient id="paint8_linear_2139_13507" x1="7.33325" y1="0" x2="7.33325" y2="5" gradientUnits="userSpaceOnUse">
<stop stop-color="#FBD19C"/>
<stop offset="1" stop-color="#F8CB81"/>
</linearGradient>
<linearGradient id="paint9_linear_2139_13507" x1="7.33325" y1="0" x2="7.33325" y2="5" gradientUnits="userSpaceOnUse">
<stop stop-color="#FFCD89"/>
<stop offset="1" stop-opacity="0"/>
</linearGradient>
<linearGradient id="paint10_linear_2139_13507" x1="11.3333" y1="5" x2="11.3333" y2="10" gradientUnits="userSpaceOnUse">
<stop stop-color="#FBD19C"/>
<stop offset="1" stop-color="#F8CB81"/>
</linearGradient>
<linearGradient id="paint11_linear_2139_13507" x1="11.3333" y1="5" x2="11.3333" y2="10" gradientUnits="userSpaceOnUse">
<stop stop-color="#FFCD89"/>
<stop offset="1" stop-opacity="0"/>
</linearGradient>
<linearGradient id="paint12_linear_2139_13507" x1="11.3333" y1="0" x2="11.3333" y2="5" gradientUnits="userSpaceOnUse">
<stop stop-color="#FBD19C"/>
<stop offset="1" stop-color="#F8CB81"/>
</linearGradient>
<linearGradient id="paint13_linear_2139_13507" x1="11.3333" y1="0" x2="11.3333" y2="5" gradientUnits="userSpaceOnUse">
<stop stop-color="#FFCD89"/>
<stop offset="1" stop-opacity="0"/>
</linearGradient>
<linearGradient id="paint14_linear_2139_13507" x1="16.3331" y1="1" x2="16.3331" y2="12.3028" gradientUnits="userSpaceOnUse">
<stop stop-color="#53AF82"/>
<stop offset="1" stop-color="#75D5A6"/>
</linearGradient>
<linearGradient id="paint15_linear_2139_13507" x1="16.3331" y1="9" x2="16.3331" y2="1" gradientUnits="userSpaceOnUse">
<stop stop-color="#60BF90"/>
<stop offset="1" stop-color="#7EDAAC"/>
</linearGradient>
</defs>
</svg>
